<svg width="324" height="54" viewBox="0 0 324 54" fill="none" xmlns="http://www.w3.org/2000/svg">
<rect width="324" height="54" rx="10" fill="white"/>
<circle cx="32" cy="14" r="12" fill="white"/>
<path d="M59.488 22.032C60.664 22.032 61.644 22.3213 62.428 22.9C63.212 23.4787 63.73 24.2673 63.982 25.266H62.302C62.0873 24.734 61.7327 24.3093 61.238 23.992C60.7527 23.6747 60.174 23.516 59.502 23.516C58.886 23.516 58.3307 23.6607 57.836 23.95C57.3507 24.2393 56.968 24.65 56.688 25.182C56.4173 25.714 56.282 26.3393 56.282 27.058C56.282 27.814 56.422 28.4627 56.702 29.004C56.982 29.5453 57.374 29.9607 57.878 30.25C58.3913 30.53 58.984 30.67 59.656 30.67C60.4773 30.67 61.182 30.418 61.77 29.914C62.358 29.4007 62.7127 28.7007 62.834 27.814H59.208V26.638H64.178V28.164C64.066 28.892 63.8047 29.5547 63.394 30.152C62.9927 30.74 62.456 31.2113 61.784 31.566C61.1213 31.9207 60.3607 32.098 59.502 32.098C58.5407 32.098 57.6913 31.8833 56.954 31.454C56.2167 31.0247 55.6473 30.432 55.246 29.676C54.8447 28.9107 54.644 28.038 54.644 27.058C54.644 26.078 54.8447 25.21 55.246 24.454C55.6473 23.6887 56.212 23.096 56.94 22.676C57.6773 22.2467 58.5267 22.032 59.488 22.032ZM67.5301 25.798C67.7915 25.294 68.1648 24.8973 68.6501 24.608C69.1355 24.3093 69.6955 24.16 70.3301 24.16V25.896H69.8541C69.1541 25.896 68.5895 26.0687 68.1601 26.414C67.7401 26.75 67.5301 27.31 67.5301 28.094V32H65.9341V24.286H67.5301V25.798ZM78.8339 27.772C78.8339 28.0333 78.8153 28.262 78.7779 28.458H72.8419C72.8699 29.2513 73.0893 29.8393 73.4999 30.222C73.9106 30.6047 74.4193 30.796 75.0259 30.796C75.5579 30.796 76.0059 30.6607 76.3699 30.39C76.7433 30.1193 76.9719 29.76 77.0559 29.312H78.7639C78.6613 29.8533 78.4466 30.334 78.1199 30.754C77.7933 31.174 77.3686 31.5053 76.8459 31.748C76.3233 31.9813 75.7399 32.098 75.0959 32.098C74.3493 32.098 73.6866 31.9393 73.1079 31.622C72.5386 31.3047 72.0906 30.8473 71.7639 30.25C71.4373 29.6527 71.2739 28.948 71.2739 28.136C71.2739 27.3333 71.4373 26.6333 71.7639 26.036C72.0906 25.4387 72.5386 24.9813 73.1079 24.664C73.6866 24.3467 74.3493 24.188 75.0959 24.188C75.8519 24.188 76.5099 24.3467 77.0699 24.664C77.6393 24.972 78.0733 25.4013 78.3719 25.952C78.6799 26.4933 78.8339 27.1 78.8339 27.772ZM77.2239 27.73C77.2426 27.226 77.1539 26.806 76.9579 26.47C76.7713 26.1247 76.5099 25.8727 76.1739 25.714C75.8473 25.546 75.4879 25.462 75.0959 25.462C74.4706 25.462 73.9479 25.6533 73.5279 26.036C73.1079 26.4187 72.8793 26.9833 72.8419 27.73H77.2239ZM83.6089 24.188C84.3089 24.188 84.9062 24.3607 85.4009 24.706C85.8956 25.0513 86.2456 25.5087 86.4509 26.078V24.286H88.0469V32H86.4509V30.208C86.2456 30.7773 85.8956 31.2347 85.4009 31.58C84.9062 31.9253 84.3089 32.098 83.6089 32.098C82.9369 32.098 82.3349 31.9393 81.8029 31.622C81.2802 31.3047 80.8696 30.8473 80.5709 30.25C80.2722 29.6527 80.1229 28.948 80.1229 28.136C80.1229 27.3333 80.2722 26.6333 80.5709 26.036C80.8696 25.4387 81.2802 24.9813 81.8029 24.664C82.3349 24.3467 82.9369 24.188 83.6089 24.188ZM84.0989 25.588C83.3896 25.588 82.8202 25.8167 82.3909 26.274C81.9709 26.722 81.7609 27.3427 81.7609 28.136C81.7609 28.9293 81.9709 29.5547 82.3909 30.012C82.8202 30.46 83.3896 30.684 84.0989 30.684C84.5469 30.684 84.9482 30.5813 85.3029 30.376C85.6576 30.1613 85.9376 29.8627 86.1429 29.48C86.3482 29.0973 86.4509 28.6493 86.4509 28.136C86.4509 27.632 86.3482 27.1887 86.1429 26.806C85.9376 26.414 85.6576 26.1153 85.3029 25.91C84.9482 25.6953 84.5469 25.588 84.0989 25.588ZM93.9802 30.614V32H93.0002C92.1788 32 91.5535 31.804 91.1242 31.412C90.7042 31.0107 90.4942 30.348 90.4942 29.424V25.644H89.3882V24.286H90.4942V22.368H92.1042V24.286H93.9662V25.644H92.1042V29.452C92.1042 29.8907 92.1835 30.194 92.3422 30.362C92.5102 30.53 92.7995 30.614 93.2102 30.614H93.9802ZM97.8552 21.808L97.6452 28.906H96.3012L96.0912 21.808H97.8552ZM97.8972 30.236V32H96.0772V30.236H97.8972ZM111.164 22.116L107.874 28.402V32H106.264V28.402L102.96 22.116H104.808L107.076 26.694L109.344 22.116H111.164ZM116.024 24.188C116.771 24.188 117.443 24.3467 118.04 24.664C118.637 24.9813 119.104 25.4387 119.44 26.036C119.776 26.6333 119.944 27.3333 119.944 28.136C119.944 28.948 119.776 29.6527 119.44 30.25C119.104 30.8473 118.637 31.3047 118.04 31.622C117.443 31.9393 116.771 32.098 116.024 32.098C115.277 32.098 114.605 31.9393 114.008 31.622C113.42 31.3047 112.953 30.8473 112.608 30.25C112.272 29.6433 112.104 28.9387 112.104 28.136C112.104 27.3333 112.272 26.6333 112.608 26.036C112.953 25.4387 113.42 24.9813 114.008 24.664C114.605 24.3467 115.277 24.188 116.024 24.188ZM116.024 25.574C115.613 25.574 115.235 25.6673 114.89 25.854C114.545 26.0407 114.265 26.33 114.05 26.722C113.845 27.1047 113.742 27.576 113.742 28.136C113.742 28.7053 113.845 29.1813 114.05 29.564C114.265 29.9467 114.545 30.2313 114.89 30.418C115.235 30.6047 115.613 30.698 116.024 30.698C116.435 30.698 116.813 30.6047 117.158 30.418C117.503 30.2313 117.779 29.9467 117.984 29.564C118.199 29.1813 118.306 28.7053 118.306 28.136C118.306 27.576 118.199 27.1047 117.984 26.722C117.779 26.33 117.503 26.0407 117.158 25.854C116.813 25.6673 116.435 25.574 116.024 25.574ZM128.731 24.286V32H127.121V30.32C126.925 30.8893 126.584 31.3327 126.099 31.65C125.613 31.958 125.049 32.112 124.405 32.112C123.509 32.112 122.79 31.8227 122.249 31.244C121.707 30.6653 121.437 29.8393 121.437 28.766V24.286H123.033V28.598C123.033 29.298 123.21 29.8393 123.565 30.222C123.919 30.5953 124.405 30.782 125.021 30.782C125.655 30.782 126.164 30.5767 126.547 30.166C126.929 29.7553 127.121 29.158 127.121 28.374V24.286H128.731ZM132.378 25.798C132.639 25.294 133.013 24.8973 133.498 24.608C133.983 24.3093 134.543 24.16 135.178 24.16V25.896H134.702C134.002 25.896 133.437 26.0687 133.008 26.414C132.588 26.75 132.378 27.31 132.378 28.094V32H130.782V24.286H132.378V25.798ZM141.531 28.164V32H139.935V22.116H143.295C144.434 22.116 145.288 22.3867 145.857 22.928C146.436 23.4693 146.725 24.2113 146.725 25.154C146.725 26.0873 146.431 26.8247 145.843 27.366C145.255 27.898 144.406 28.164 143.295 28.164H141.531ZM143.127 26.862C144.443 26.862 145.101 26.2927 145.101 25.154C145.101 24.594 144.942 24.1693 144.625 23.88C144.317 23.5813 143.818 23.432 143.127 23.432H141.531V26.862H143.127ZM151.359 24.188C152.059 24.188 152.656 24.3607 153.151 24.706C153.645 25.0513 153.995 25.5087 154.201 26.078V24.286H155.797V32H154.201V30.208C153.995 30.7773 153.645 31.2347 153.151 31.58C152.656 31.9253 152.059 32.098 151.359 32.098C150.687 32.098 150.085 31.9393 149.553 31.622C149.03 31.3047 148.619 30.8473 148.321 30.25C148.022 29.6527 147.873 28.948 147.873 28.136C147.873 27.3333 148.022 26.6333 148.321 26.036C148.619 25.4387 149.03 24.9813 149.553 24.664C150.085 24.3467 150.687 24.188 151.359 24.188ZM151.849 25.588C151.139 25.588 150.57 25.8167 150.141 26.274C149.721 26.722 149.511 27.3427 149.511 28.136C149.511 28.9293 149.721 29.5547 150.141 30.012C150.57 30.46 151.139 30.684 151.849 30.684C152.297 30.684 152.698 30.5813 153.053 30.376C153.407 30.1613 153.687 29.8627 153.893 29.48C154.098 29.0973 154.201 28.6493 154.201 28.136C154.201 27.632 154.098 27.1887 153.893 26.806C153.687 26.414 153.407 26.1153 153.053 25.91C152.698 25.6953 152.297 25.588 151.849 25.588ZM158.762 24.286L161.072 29.956L163.214 24.286H164.992L160.33 35.668H158.552L160.218 31.818L156.97 24.286H158.762ZM175.827 24.16C176.742 24.16 177.47 24.4493 178.011 25.028C178.562 25.6067 178.837 26.4327 178.837 27.506V32H177.241V27.674C177.241 27.002 177.073 26.484 176.737 26.12C176.401 25.7467 175.939 25.56 175.351 25.56C174.726 25.56 174.227 25.7607 173.853 26.162C173.489 26.554 173.307 27.1327 173.307 27.898V32H171.711V27.674C171.711 27.002 171.543 26.484 171.207 26.12C170.871 25.7467 170.409 25.56 169.821 25.56C169.196 25.56 168.697 25.7607 168.323 26.162C167.959 26.554 167.777 27.1327 167.777 27.898V32H166.181V24.286H167.777V25.896C167.973 25.336 168.3 24.9067 168.757 24.608C169.215 24.3093 169.751 24.16 170.367 24.16C171.011 24.16 171.567 24.3187 172.033 24.636C172.509 24.9533 172.855 25.4107 173.069 26.008C173.293 25.4293 173.653 24.9767 174.147 24.65C174.642 24.3233 175.202 24.16 175.827 24.16ZM188.009 27.772C188.009 28.0333 187.99 28.262 187.953 28.458H182.017C182.045 29.2513 182.264 29.8393 182.675 30.222C183.085 30.6047 183.594 30.796 184.201 30.796C184.733 30.796 185.181 30.6607 185.545 30.39C185.918 30.1193 186.147 29.76 186.231 29.312H187.939C187.836 29.8533 187.621 30.334 187.295 30.754C186.968 31.174 186.543 31.5053 186.021 31.748C185.498 31.9813 184.915 32.098 184.271 32.098C183.524 32.098 182.861 31.9393 182.283 31.622C181.713 31.3047 181.265 30.8473 180.939 30.25C180.612 29.6527 180.449 28.948 180.449 28.136C180.449 27.3333 180.612 26.6333 180.939 26.036C181.265 25.4387 181.713 24.9813 182.283 24.664C182.861 24.3467 183.524 24.188 184.271 24.188C185.027 24.188 185.685 24.3467 186.245 24.664C186.814 24.972 187.248 25.4013 187.547 25.952C187.855 26.4933 188.009 27.1 188.009 27.772ZM186.399 27.73C186.417 27.226 186.329 26.806 186.133 26.47C185.946 26.1247 185.685 25.8727 185.349 25.714C185.022 25.546 184.663 25.462 184.271 25.462C183.645 25.462 183.123 25.6533 182.703 26.036C182.283 26.4187 182.054 26.9833 182.017 27.73H186.399ZM194.002 24.16C194.898 24.16 195.616 24.4493 196.158 25.028C196.699 25.6067 196.97 26.4327 196.97 27.506V32H195.374V27.674C195.374 26.9833 195.196 26.4513 194.842 26.078C194.487 25.6953 194.002 25.504 193.386 25.504C192.751 25.504 192.242 25.7093 191.86 26.12C191.477 26.5213 191.286 27.114 191.286 27.898V32H189.69V24.286H191.286V25.98C191.491 25.4013 191.836 24.9533 192.322 24.636C192.807 24.3187 193.367 24.16 194.002 24.16ZM202.854 30.614V32H201.874C201.053 32 200.428 31.804 199.998 31.412C199.578 31.0107 199.368 30.348 199.368 29.424V25.644H198.262V24.286H199.368V22.368H200.978V24.286H202.84V25.644H200.978V29.452C200.978 29.8907 201.058 30.194 201.216 30.362C201.384 30.53 201.674 30.614 202.084 30.614H202.854ZM207.687 22.046C207.687 21.7753 207.78 21.5513 207.967 21.374C208.153 21.1967 208.401 21.108 208.709 21.108C209.017 21.108 209.264 21.1967 209.451 21.374C209.647 21.5513 209.745 21.7753 209.745 22.046C209.745 22.3167 209.647 22.536 209.451 22.704C209.264 22.872 209.017 22.956 208.709 22.956C208.401 22.956 208.153 22.872 207.967 22.704C207.78 22.536 207.687 22.3167 207.687 22.046ZM209.507 24.286V32H207.911V24.286H209.507ZM214.112 24.188C215.017 24.188 215.741 24.4213 216.282 24.888C216.833 25.3453 217.169 25.9613 217.29 26.736H215.778C215.713 26.316 215.531 25.98 215.232 25.728C214.943 25.4667 214.555 25.336 214.07 25.336C213.669 25.336 213.356 25.434 213.132 25.63C212.917 25.8167 212.81 26.0733 212.81 26.4C212.81 26.6427 212.889 26.8387 213.048 26.988C213.207 27.1373 213.403 27.254 213.636 27.338C213.879 27.422 214.219 27.5153 214.658 27.618C215.237 27.7487 215.703 27.884 216.058 28.024C216.422 28.164 216.73 28.388 216.982 28.696C217.243 28.9947 217.374 29.4053 217.374 29.928C217.374 30.572 217.127 31.0947 216.632 31.496C216.147 31.8973 215.489 32.098 214.658 32.098C213.697 32.098 212.917 31.874 212.32 31.426C211.732 30.978 211.377 30.3527 211.256 29.55H212.81C212.857 29.97 213.043 30.3107 213.37 30.572C213.697 30.8333 214.126 30.964 214.658 30.964C215.041 30.964 215.339 30.866 215.554 30.67C215.778 30.4647 215.89 30.208 215.89 29.9C215.89 29.6293 215.806 29.4147 215.638 29.256C215.47 29.0973 215.26 28.976 215.008 28.892C214.756 28.7987 214.411 28.7053 213.972 28.612C213.412 28.4813 212.955 28.3507 212.6 28.22C212.255 28.0893 211.956 27.8793 211.704 27.59C211.461 27.2913 211.34 26.89 211.34 26.386C211.34 25.7327 211.583 25.2053 212.068 24.804C212.563 24.3933 213.244 24.188 214.112 24.188ZM225.07 24.188C225.975 24.188 226.698 24.4213 227.24 24.888C227.79 25.3453 228.126 25.9613 228.248 26.736H226.736C226.67 26.316 226.488 25.98 226.19 25.728C225.9 25.4667 225.513 25.336 225.028 25.336C224.626 25.336 224.314 25.434 224.09 25.63C223.875 25.8167 223.768 26.0733 223.768 26.4C223.768 26.6427 223.847 26.8387 224.006 26.988C224.164 27.1373 224.36 27.254 224.594 27.338C224.836 27.422 225.177 27.5153 225.616 27.618C226.194 27.7487 226.661 27.884 227.016 28.024C227.38 28.164 227.688 28.388 227.94 28.696C228.201 28.9947 228.332 29.4053 228.332 29.928C228.332 30.572 228.084 31.0947 227.59 31.496C227.104 31.8973 226.446 32.098 225.616 32.098C224.654 32.098 223.875 31.874 223.278 31.426C222.69 30.978 222.335 30.3527 222.214 29.55H223.768C223.814 29.97 224.001 30.3107 224.328 30.572C224.654 30.8333 225.084 30.964 225.616 30.964C225.998 30.964 226.297 30.866 226.512 30.67C226.736 30.4647 226.848 30.208 226.848 29.9C226.848 29.6293 226.764 29.4147 226.596 29.256C226.428 29.0973 226.218 28.976 225.966 28.892C225.714 28.7987 225.368 28.7053 224.93 28.612C224.37 28.4813 223.912 28.3507 223.558 28.22C223.212 28.0893 222.914 27.8793 222.662 27.59C222.419 27.2913 222.298 26.89 222.298 26.386C222.298 25.7327 222.54 25.2053 223.026 24.804C223.52 24.3933 224.202 24.188 225.07 24.188ZM237.184 24.286V32H235.574V30.32C235.378 30.8893 235.037 31.3327 234.552 31.65C234.067 31.958 233.502 32.112 232.858 32.112C231.962 32.112 231.243 31.8227 230.702 31.244C230.161 30.6653 229.89 29.8393 229.89 28.766V24.286H231.486V28.598C231.486 29.298 231.663 29.8393 232.018 30.222C232.373 30.5953 232.858 30.782 233.474 30.782C234.109 30.782 234.617 30.5767 235 30.166C235.383 29.7553 235.574 29.158 235.574 28.374V24.286H237.184ZM242.666 24.188C243.664 24.188 244.49 24.454 245.144 24.986C245.797 25.5087 246.203 26.2227 246.362 27.128H244.668C244.574 26.6427 244.346 26.2647 243.982 25.994C243.627 25.714 243.179 25.574 242.638 25.574C242.022 25.574 241.508 25.7933 241.098 26.232C240.687 26.6613 240.482 27.296 240.482 28.136C240.482 28.976 240.687 29.6153 241.098 30.054C241.508 30.4927 242.022 30.712 242.638 30.712C243.179 30.712 243.627 30.572 243.982 30.292C244.346 30.012 244.574 29.6293 244.668 29.144H246.362C246.203 30.0493 245.797 30.768 245.144 31.3C244.49 31.832 243.664 32.098 242.666 32.098C241.919 32.098 241.256 31.9393 240.678 31.622C240.108 31.3047 239.66 30.8473 239.334 30.25C239.007 29.6527 238.844 28.948 238.844 28.136C238.844 27.3333 239.007 26.6333 239.334 26.036C239.66 25.4387 240.108 24.9813 240.678 24.664C241.256 24.3467 241.919 24.188 242.666 24.188ZM251.473 24.188C252.472 24.188 253.298 24.454 253.951 24.986C254.605 25.5087 255.011 26.2227 255.169 27.128H253.475C253.382 26.6427 253.153 26.2647 252.789 25.994C252.435 25.714 251.987 25.574 251.445 25.574C250.829 25.574 250.316 25.7933 249.905 26.232C249.495 26.6613 249.289 27.296 249.289 28.136C249.289 28.976 249.495 29.6153 249.905 30.054C250.316 30.4927 250.829 30.712 251.445 30.712C251.987 30.712 252.435 30.572 252.789 30.292C253.153 30.012 253.382 29.6293 253.475 29.144H255.169C255.011 30.0493 254.605 30.768 253.951 31.3C253.298 31.832 252.472 32.098 251.473 32.098C250.727 32.098 250.064 31.9393 249.485 31.622C248.916 31.3047 248.468 30.8473 248.141 30.25C247.815 29.6527 247.651 28.948 247.651 28.136C247.651 27.3333 247.815 26.6333 248.141 26.036C248.468 25.4387 248.916 24.9813 249.485 24.664C250.064 24.3467 250.727 24.188 251.473 24.188ZM264.019 27.772C264.019 28.0333 264.001 28.262 263.963 28.458H258.027C258.055 29.2513 258.275 29.8393 258.685 30.222C259.096 30.6047 259.605 30.796 260.211 30.796C260.743 30.796 261.191 30.6607 261.555 30.39C261.929 30.1193 262.157 29.76 262.241 29.312H263.949C263.847 29.8533 263.632 30.334 263.305 30.754C262.979 31.174 262.554 31.5053 262.031 31.748C261.509 31.9813 260.925 32.098 260.281 32.098C259.535 32.098 258.872 31.9393 258.293 31.622C257.724 31.3047 257.276 30.8473 256.949 30.25C256.623 29.6527 256.459 28.948 256.459 28.136C256.459 27.3333 256.623 26.6333 256.949 26.036C257.276 25.4387 257.724 24.9813 258.293 24.664C258.872 24.3467 259.535 24.188 260.281 24.188C261.037 24.188 261.695 24.3467 262.255 24.664C262.825 24.972 263.259 25.4013 263.557 25.952C263.865 26.4933 264.019 27.1 264.019 27.772ZM262.409 27.73C262.428 27.226 262.339 26.806 262.143 26.47C261.957 26.1247 261.695 25.8727 261.359 25.714C261.033 25.546 260.673 25.462 260.281 25.462C259.656 25.462 259.133 25.6533 258.713 26.036C258.293 26.4187 258.065 26.9833 258.027 27.73H262.409ZM268.234 24.188C269.14 24.188 269.863 24.4213 270.404 24.888C270.955 25.3453 271.291 25.9613 271.412 26.736H269.9C269.835 26.316 269.653 25.98 269.354 25.728C269.065 25.4667 268.678 25.336 268.192 25.336C267.791 25.336 267.478 25.434 267.254 25.63C267.04 25.8167 266.932 26.0733 266.932 26.4C266.932 26.6427 267.012 26.8387 267.17 26.988C267.329 27.1373 267.525 27.254 267.758 27.338C268.001 27.422 268.342 27.5153 268.78 27.618C269.359 27.7487 269.826 27.884 270.18 28.024C270.544 28.164 270.852 28.388 271.104 28.696C271.366 28.9947 271.496 29.4053 271.496 29.928C271.496 30.572 271.249 31.0947 270.754 31.496C270.269 31.8973 269.611 32.098 268.78 32.098C267.819 32.098 267.04 31.874 266.442 31.426C265.854 30.978 265.5 30.3527 265.378 29.55H266.932C266.979 29.97 267.166 30.3107 267.492 30.572C267.819 30.8333 268.248 30.964 268.78 30.964C269.163 30.964 269.462 30.866 269.676 30.67C269.9 30.4647 270.012 30.208 270.012 29.9C270.012 29.6293 269.928 29.4147 269.76 29.256C269.592 29.0973 269.382 28.976 269.13 28.892C268.878 28.7987 268.533 28.7053 268.094 28.612C267.534 28.4813 267.077 28.3507 266.722 28.22C266.377 28.0893 266.078 27.8793 265.826 27.59C265.584 27.2913 265.462 26.89 265.462 26.386C265.462 25.7327 265.705 25.2053 266.19 24.804C266.685 24.3933 267.366 24.188 268.234 24.188ZM276.835 22.69C276.21 22.662 275.771 22.7647 275.519 22.998C275.267 23.222 275.141 23.6093 275.141 24.16V24.286H276.835V25.658H275.141V32H273.531V25.658H272.481V24.286H273.531V24.034C273.531 23.0913 273.806 22.3867 274.357 21.92C274.908 21.444 275.734 21.234 276.835 21.29V22.69ZM285.37 24.286V32H283.76V30.32C283.564 30.8893 283.223 31.3327 282.738 31.65C282.252 31.958 281.688 32.112 281.044 32.112C280.148 32.112 279.429 31.8227 278.888 31.244C278.346 30.6653 278.076 29.8393 278.076 28.766V24.286H279.672V28.598C279.672 29.298 279.849 29.8393 280.204 30.222C280.558 30.5953 281.044 30.782 281.66 30.782C282.294 30.782 282.803 30.5767 283.186 30.166C283.568 29.7553 283.76 29.158 283.76 28.374V24.286H285.37ZM289.017 21.64V32H287.421V21.64H289.017ZM292.685 21.64V32H291.089V21.64H292.685ZM295.666 24.286L297.976 29.956L300.118 24.286H301.896L297.234 35.668H295.456L297.122 31.818L293.874 24.286H295.666ZM304.345 30.236V32H302.539V30.236H304.345Z" fill="#080915"/>
<g clip-path="url(#clip0_11_94)">
<path d="M32 15C25.3676 15 20 20.367 20 27C20 33.6324 25.367 39 32 39C38.6324 39 44 33.633 44 27C44 20.3676 38.633 15 32 15ZM38.3522 23.7218L30.6645 31.4095C30.3522 31.7218 29.8455 31.7219 29.5331 31.4095L25.6478 27.5242C25.3354 27.2118 25.3354 26.7052 25.6478 26.3928C25.9602 26.0804 26.4667 26.0804 26.7792 26.3928L30.0988 29.7125L37.2209 22.5904C37.5333 22.278 38.0399 22.278 38.3523 22.5904C38.6646 22.9029 38.6646 23.4094 38.3522 23.7218Z" fill="#00AE1C"/>
</g>
<defs>
<clipPath id="clip0_11_94">
<rect width="24" height="24" fill="white" transform="translate(20 15)"/>
</clipPath>
</defs>
</svg>
