<svg width="227" height="216" viewBox="0 0 227 216" fill="none" xmlns="http://www.w3.org/2000/svg">
<rect width="227" height="216" rx="10" fill="url(#paint0_linear_1_115)"/>
<path fill-rule="evenodd" clip-rule="evenodd" d="M204.511 104H141.638C139.981 104 138.638 105.343 138.638 107V132C138.638 133.657 139.981 135 141.638 135H204.511C206.168 135 207.511 133.657 207.511 132V107C207.511 105.343 206.168 104 204.511 104ZM141.638 103C139.429 103 137.638 104.791 137.638 107V132C137.638 134.209 139.429 136 141.638 136H204.511C206.72 136 208.511 134.209 208.511 132V107C208.511 104.791 206.72 103 204.511 103H141.638Z" fill="url(#paint1_linear_1_115)"/>
<rect x="20.543" y="160" width="187.968" height="33" rx="10" fill="url(#paint2_linear_1_115)"/>
<circle cx="48.543" cy="48" r="28" fill="white"/>
<path d="M93.2548 36.712V43H89.8708V26.056H96.0388C98.0388 26.056 99.5428 26.536 100.551 27.496C101.575 28.456 102.087 29.76 102.087 31.408C102.087 33.024 101.559 34.312 100.503 35.272C99.4628 36.232 97.9748 36.712 96.0388 36.712H93.2548ZM95.6788 34C97.6628 34 98.6548 33.136 98.6548 31.408C98.6548 30.56 98.4228 29.912 97.9588 29.464C97.4948 29.016 96.7348 28.792 95.6788 28.792H93.2548V34H95.6788ZM109.733 29.536C110.853 29.536 111.813 29.8 112.613 30.328C113.413 30.856 113.981 31.568 114.317 32.464V29.704H117.677V43H114.317V40.216C113.981 41.112 113.413 41.832 112.613 42.376C111.813 42.904 110.853 43.168 109.733 43.168C108.613 43.168 107.605 42.896 106.709 42.352C105.813 41.808 105.109 41.024 104.597 40C104.101 38.96 103.853 37.744 103.853 36.352C103.853 34.96 104.101 33.752 104.597 32.728C105.109 31.688 105.813 30.896 106.709 30.352C107.605 29.808 108.613 29.536 109.733 29.536ZM110.789 32.488C109.733 32.488 108.885 32.832 108.245 33.52C107.605 34.208 107.285 35.152 107.285 36.352C107.285 37.552 107.605 38.496 108.245 39.184C108.885 39.856 109.733 40.192 110.789 40.192C111.813 40.192 112.653 39.848 113.309 39.16C113.981 38.456 114.317 37.52 114.317 36.352C114.317 35.168 113.981 34.232 113.309 33.544C112.653 32.84 111.813 32.488 110.789 32.488ZM123.264 29.704L126.888 38.728L130.248 29.704H133.968L125.832 49.336H122.088L125.088 42.616L119.496 29.704H123.264ZM143.746 29.536C144.866 29.536 145.874 29.808 146.77 30.352C147.666 30.896 148.362 31.688 148.858 32.728C149.37 33.752 149.626 34.96 149.626 36.352C149.626 37.744 149.37 38.96 148.858 40C148.362 41.024 147.666 41.808 146.77 42.352C145.874 42.896 144.866 43.168 143.746 43.168C142.626 43.168 141.666 42.904 140.866 42.376C140.082 41.832 139.522 41.112 139.186 40.216V49.336H135.802V29.704H139.186V32.464C139.522 31.568 140.082 30.856 140.866 30.328C141.666 29.8 142.626 29.536 143.746 29.536ZM142.69 32.488C141.666 32.488 140.818 32.84 140.146 33.544C139.49 34.232 139.162 35.168 139.162 36.352C139.162 37.52 139.49 38.456 140.146 39.16C140.818 39.848 141.666 40.192 142.69 40.192C143.746 40.192 144.594 39.856 145.234 39.184C145.874 38.496 146.194 37.552 146.194 36.352C146.194 35.152 145.874 34.208 145.234 33.52C144.594 32.832 143.746 32.488 142.69 32.488ZM157.469 29.536C158.589 29.536 159.549 29.8 160.349 30.328C161.149 30.856 161.717 31.568 162.053 32.464V29.704H165.413V43H162.053V40.216C161.717 41.112 161.149 41.832 160.349 42.376C159.549 42.904 158.589 43.168 157.469 43.168C156.349 43.168 155.341 42.896 154.445 42.352C153.549 41.808 152.845 41.024 152.333 40C151.837 38.96 151.589 37.744 151.589 36.352C151.589 34.96 151.837 33.752 152.333 32.728C152.845 31.688 153.549 30.896 154.445 30.352C155.341 29.808 156.349 29.536 157.469 29.536ZM158.525 32.488C157.469 32.488 156.621 32.832 155.981 33.52C155.341 34.208 155.021 35.152 155.021 36.352C155.021 37.552 155.341 38.496 155.981 39.184C156.621 39.856 157.469 40.192 158.525 40.192C159.549 40.192 160.389 39.848 161.045 39.16C161.717 38.456 162.053 37.52 162.053 36.352C162.053 35.168 161.717 34.232 161.045 33.544C160.389 32.84 159.549 32.488 158.525 32.488ZM172.103 25.24V43H168.719V25.24H172.103Z" fill="white"/>
<path d="M95.0092 59.456C96.0412 59.456 96.8932 59.712 97.5652 60.224C98.2372 60.728 98.7012 61.42 98.9572 62.3H97.8052C97.5892 61.74 97.2412 61.296 96.7612 60.968C96.2812 60.632 95.6932 60.464 94.9972 60.464C94.4452 60.464 93.9492 60.6 93.5092 60.872C93.0772 61.136 92.7332 61.52 92.4772 62.024C92.2292 62.52 92.1052 63.104 92.1052 63.776C92.1052 64.44 92.2292 65.02 92.4772 65.516C92.7332 66.012 93.0772 66.396 93.5092 66.668C93.9492 66.932 94.4452 67.064 94.9972 67.064C95.6932 67.064 96.2812 66.9 96.7612 66.572C97.2412 66.236 97.5892 65.788 97.8052 65.228H98.9572C98.7012 66.108 98.2372 66.804 97.5652 67.316C96.8932 67.82 96.0412 68.072 95.0092 68.072C94.2172 68.072 93.5172 67.892 92.9092 67.532C92.3012 67.164 91.8252 66.656 91.4812 66.008C91.1452 65.352 90.9772 64.608 90.9772 63.776C90.9772 62.936 91.1452 62.188 91.4812 61.532C91.8252 60.876 92.3012 60.368 92.9092 60.008C93.5172 59.64 94.2172 59.456 95.0092 59.456ZM104.006 61.304C104.774 61.304 105.394 61.552 105.866 62.048C106.338 62.536 106.574 63.244 106.574 64.172V68H105.482V64.268C105.482 63.612 105.314 63.108 104.978 62.756C104.642 62.404 104.186 62.228 103.61 62.228C103.01 62.228 102.53 62.424 102.17 62.816C101.81 63.2 101.63 63.764 101.63 64.508V68H100.538V59.12H101.63V62.972C101.798 62.436 102.094 62.024 102.518 61.736C102.95 61.448 103.446 61.304 104.006 61.304ZM114.428 64.34C114.428 64.572 114.412 64.772 114.38 64.94H109.112C109.136 65.692 109.348 66.256 109.748 66.632C110.156 67.008 110.652 67.196 111.236 67.196C111.764 67.196 112.204 67.064 112.556 66.8C112.916 66.528 113.136 66.168 113.216 65.72H114.38C114.3 66.176 114.12 66.584 113.84 66.944C113.568 67.304 113.212 67.584 112.772 67.784C112.332 67.984 111.836 68.084 111.284 68.084C110.652 68.084 110.092 67.948 109.604 67.676C109.116 67.404 108.732 67.016 108.452 66.512C108.18 66 108.044 65.4 108.044 64.712C108.044 64.024 108.18 63.424 108.452 62.912C108.732 62.4 109.116 62.008 109.604 61.736C110.092 61.464 110.652 61.328 111.284 61.328C111.924 61.328 112.48 61.464 112.952 61.736C113.432 62.008 113.796 62.372 114.044 62.828C114.3 63.284 114.428 63.788 114.428 64.34ZM113.324 64.412C113.348 63.924 113.268 63.516 113.084 63.188C112.9 62.86 112.648 62.616 112.328 62.456C112.008 62.296 111.66 62.216 111.284 62.216C110.684 62.216 110.18 62.404 109.772 62.78C109.364 63.148 109.144 63.692 109.112 64.412H113.324ZM118.893 61.328C119.733 61.328 120.429 61.552 120.981 62C121.533 62.448 121.873 63.048 122.001 63.8H120.849C120.769 63.328 120.549 62.96 120.189 62.696C119.837 62.424 119.397 62.288 118.869 62.288C118.485 62.288 118.133 62.376 117.813 62.552C117.501 62.728 117.249 63 117.057 63.368C116.865 63.728 116.769 64.176 116.769 64.712C116.769 65.248 116.865 65.7 117.057 66.068C117.249 66.428 117.501 66.696 117.813 66.872C118.133 67.048 118.485 67.136 118.869 67.136C119.397 67.136 119.837 67 120.189 66.728C120.549 66.456 120.769 66.084 120.849 65.612H122.001C121.873 66.372 121.533 66.976 120.981 67.424C120.429 67.864 119.733 68.084 118.893 68.084C118.261 68.084 117.701 67.948 117.213 67.676C116.725 67.404 116.341 67.016 116.061 66.512C115.789 66 115.653 65.4 115.653 64.712C115.653 64.024 115.789 63.424 116.061 62.912C116.341 62.4 116.725 62.008 117.213 61.736C117.701 61.464 118.261 61.328 118.893 61.328ZM127.162 68L124.642 65.036V68H123.55V59.12H124.642V64.28L127.126 61.412H128.458L125.506 64.688L128.53 68H127.162ZM132.599 61.328C133.231 61.328 133.795 61.464 134.291 61.736C134.795 62.008 135.187 62.4 135.467 62.912C135.755 63.424 135.899 64.024 135.899 64.712C135.899 65.4 135.755 66 135.467 66.512C135.187 67.016 134.795 67.404 134.291 67.676C133.795 67.948 133.231 68.084 132.599 68.084C131.967 68.084 131.399 67.948 130.895 67.676C130.399 67.404 130.007 67.016 129.719 66.512C129.431 66 129.287 65.4 129.287 64.712C129.287 64.024 129.431 63.424 129.719 62.912C130.007 62.4 130.399 62.008 130.895 61.736C131.399 61.464 131.967 61.328 132.599 61.328ZM132.599 62.288C132.207 62.288 131.843 62.376 131.507 62.552C131.179 62.728 130.911 63 130.703 63.368C130.503 63.728 130.403 64.176 130.403 64.712C130.403 65.24 130.503 65.688 130.703 66.056C130.911 66.416 131.179 66.684 131.507 66.86C131.843 67.036 132.207 67.124 132.599 67.124C132.991 67.124 133.351 67.036 133.679 66.86C134.015 66.684 134.283 66.416 134.483 66.056C134.691 65.688 134.795 65.24 134.795 64.712C134.795 64.176 134.691 63.728 134.483 63.368C134.283 63 134.015 62.728 133.679 62.552C133.351 62.376 132.991 62.288 132.599 62.288ZM143.298 61.412V68H142.206V66.452C142.038 66.988 141.738 67.4 141.306 67.688C140.882 67.968 140.386 68.108 139.818 68.108C139.058 68.108 138.442 67.864 137.97 67.376C137.498 66.88 137.262 66.172 137.262 65.252V61.412H138.354V65.144C138.354 65.8 138.522 66.308 138.858 66.668C139.194 67.02 139.65 67.196 140.226 67.196C140.826 67.196 141.306 67.004 141.666 66.62C142.026 66.228 142.206 65.66 142.206 64.916V61.412H143.298ZM148.312 67.04V68H147.496C146.824 68 146.32 67.84 145.984 67.52C145.656 67.2 145.492 66.664 145.492 65.912V62.36H144.508V61.412H145.492V59.768H146.596V61.412H148.3V62.36H146.596V65.936C146.596 66.36 146.672 66.652 146.824 66.812C146.984 66.964 147.256 67.04 147.64 67.04H148.312Z" fill="white" fill-opacity="0.7"/>
<path d="M152.529 115.456C153.561 115.456 154.413 115.712 155.085 116.224C155.757 116.728 156.221 117.42 156.477 118.3H155.325C155.109 117.74 154.761 117.296 154.281 116.968C153.801 116.632 153.213 116.464 152.517 116.464C151.965 116.464 151.469 116.6 151.029 116.872C150.597 117.136 150.253 117.52 149.997 118.024C149.749 118.52 149.625 119.104 149.625 119.776C149.625 120.44 149.749 121.02 149.997 121.516C150.253 122.012 150.597 122.396 151.029 122.668C151.469 122.932 151.965 123.064 152.517 123.064C153.213 123.064 153.801 122.9 154.281 122.572C154.761 122.236 155.109 121.788 155.325 121.228H156.477C156.221 122.108 155.757 122.804 155.085 123.316C154.413 123.82 153.561 124.072 152.529 124.072C151.737 124.072 151.037 123.892 150.429 123.532C149.821 123.164 149.345 122.656 149.001 122.008C148.665 121.352 148.497 120.608 148.497 119.776C148.497 118.936 148.665 118.188 149.001 117.532C149.345 116.876 149.821 116.368 150.429 116.008C151.037 115.64 151.737 115.456 152.529 115.456ZM161.526 117.304C162.294 117.304 162.914 117.552 163.386 118.048C163.858 118.536 164.094 119.244 164.094 120.172V124H163.002V120.268C163.002 119.612 162.834 119.108 162.498 118.756C162.162 118.404 161.706 118.228 161.13 118.228C160.53 118.228 160.05 118.424 159.69 118.816C159.33 119.2 159.15 119.764 159.15 120.508V124H158.058V115.12H159.15V118.972C159.318 118.436 159.614 118.024 160.038 117.736C160.47 117.448 160.966 117.304 161.526 117.304ZM168.589 117.328C169.229 117.328 169.769 117.488 170.209 117.808C170.657 118.128 170.969 118.556 171.145 119.092V117.412H172.237V124H171.145V122.32C170.969 122.856 170.657 123.284 170.209 123.604C169.769 123.924 169.229 124.084 168.589 124.084C168.005 124.084 167.485 123.948 167.029 123.676C166.573 123.404 166.213 123.016 165.949 122.512C165.693 122 165.565 121.4 165.565 120.712C165.565 120.024 165.693 119.424 165.949 118.912C166.213 118.4 166.573 118.008 167.029 117.736C167.485 117.464 168.005 117.328 168.589 117.328ZM168.901 118.3C168.229 118.3 167.689 118.516 167.281 118.948C166.881 119.372 166.681 119.96 166.681 120.712C166.681 121.464 166.881 122.056 167.281 122.488C167.689 122.912 168.229 123.124 168.901 123.124C169.333 123.124 169.717 123.024 170.053 122.824C170.397 122.624 170.665 122.344 170.857 121.984C171.049 121.616 171.145 121.192 171.145 120.712C171.145 120.232 171.049 119.808 170.857 119.44C170.665 119.072 170.397 118.792 170.053 118.6C169.717 118.4 169.333 118.3 168.901 118.3ZM177.563 117.304C178.331 117.304 178.951 117.552 179.423 118.048C179.895 118.536 180.131 119.244 180.131 120.172V124H179.039V120.268C179.039 119.612 178.871 119.108 178.535 118.756C178.199 118.404 177.743 118.228 177.167 118.228C176.567 118.228 176.087 118.424 175.727 118.816C175.367 119.2 175.187 119.764 175.187 120.508V124H174.095V117.412H175.187V118.972C175.355 118.436 175.651 118.024 176.075 117.736C176.507 117.448 177.003 117.304 177.563 117.304ZM184.626 117.328C185.266 117.328 185.806 117.488 186.246 117.808C186.694 118.128 187.006 118.556 187.182 119.092V117.412H188.274V124.108C188.274 124.716 188.146 125.256 187.89 125.728C187.634 126.2 187.274 126.568 186.81 126.832C186.346 127.096 185.806 127.228 185.19 127.228C184.302 127.228 183.578 127.012 183.018 126.58C182.458 126.156 182.102 125.58 181.95 124.852H183.03C183.158 125.292 183.398 125.636 183.75 125.884C184.11 126.14 184.57 126.268 185.13 126.268C185.722 126.268 186.21 126.076 186.594 125.692C186.986 125.316 187.182 124.788 187.182 124.108V122.32C187.006 122.856 186.694 123.284 186.246 123.604C185.806 123.924 185.266 124.084 184.626 124.084C184.042 124.084 183.522 123.948 183.066 123.676C182.61 123.404 182.25 123.016 181.986 122.512C181.73 122 181.602 121.4 181.602 120.712C181.602 120.024 181.73 119.424 181.986 118.912C182.25 118.4 182.61 118.008 183.066 117.736C183.522 117.464 184.042 117.328 184.626 117.328ZM184.938 118.3C184.266 118.3 183.726 118.516 183.318 118.948C182.918 119.372 182.718 119.96 182.718 120.712C182.718 121.464 182.918 122.056 183.318 122.488C183.726 122.912 184.266 123.124 184.938 123.124C185.37 123.124 185.754 123.024 186.09 122.824C186.434 122.624 186.702 122.344 186.894 121.984C187.086 121.616 187.182 121.192 187.182 120.712C187.182 120.232 187.086 119.808 186.894 119.44C186.702 119.072 186.434 118.792 186.09 118.6C185.754 118.4 185.37 118.3 184.938 118.3ZM196.192 120.34C196.192 120.572 196.176 120.772 196.144 120.94H190.876C190.9 121.692 191.112 122.256 191.512 122.632C191.92 123.008 192.416 123.196 193 123.196C193.528 123.196 193.968 123.064 194.32 122.8C194.68 122.528 194.9 122.168 194.98 121.72H196.144C196.064 122.176 195.884 122.584 195.604 122.944C195.332 123.304 194.976 123.584 194.536 123.784C194.096 123.984 193.6 124.084 193.048 124.084C192.416 124.084 191.856 123.948 191.368 123.676C190.88 123.404 190.496 123.016 190.216 122.512C189.944 122 189.808 121.4 189.808 120.712C189.808 120.024 189.944 119.424 190.216 118.912C190.496 118.4 190.88 118.008 191.368 117.736C191.856 117.464 192.416 117.328 193.048 117.328C193.688 117.328 194.244 117.464 194.716 117.736C195.196 118.008 195.56 118.372 195.808 118.828C196.064 119.284 196.192 119.788 196.192 120.34ZM195.088 120.412C195.112 119.924 195.032 119.516 194.848 119.188C194.664 118.86 194.412 118.616 194.092 118.456C193.772 118.296 193.424 118.216 193.048 118.216C192.448 118.216 191.944 118.404 191.536 118.78C191.128 119.148 190.908 119.692 190.876 120.412H195.088Z" fill="url(#paint3_linear_1_115)"/>
<path d="M77.4039 172.66V181H76.0239V174.748L73.6119 181H72.4119L69.9879 174.748V181H68.6199V172.66H70.2759L73.0359 179.32L75.7479 172.66H77.4039ZM81.8216 174.304C82.4216 174.304 82.9336 174.452 83.3576 174.748C83.7816 175.044 84.0816 175.436 84.2576 175.924V174.388H85.6256V181H84.2576V179.464C84.0816 179.952 83.7816 180.344 83.3576 180.64C82.9336 180.936 82.4216 181.084 81.8216 181.084C81.2456 181.084 80.7296 180.948 80.2736 180.676C79.8256 180.404 79.4736 180.012 79.2176 179.5C78.9616 178.988 78.8336 178.384 78.8336 177.688C78.8336 177 78.9616 176.4 79.2176 175.888C79.4736 175.376 79.8256 174.984 80.2736 174.712C80.7296 174.44 81.2456 174.304 81.8216 174.304ZM82.2416 175.504C81.6336 175.504 81.1456 175.7 80.7776 176.092C80.4176 176.476 80.2376 177.008 80.2376 177.688C80.2376 178.368 80.4176 178.904 80.7776 179.296C81.1456 179.68 81.6336 179.872 82.2416 179.872C82.6256 179.872 82.9696 179.784 83.2736 179.608C83.5776 179.424 83.8176 179.168 83.9936 178.84C84.1696 178.512 84.2576 178.128 84.2576 177.688C84.2576 177.256 84.1696 176.876 83.9936 176.548C83.8176 176.212 83.5776 175.956 83.2736 175.78C82.9696 175.596 82.6256 175.504 82.2416 175.504ZM91.1312 181L88.7552 178.06V181H87.3872V172.12H88.7552V177.208L91.1072 174.388H92.7512L89.8712 177.676L92.8232 181H91.1312ZM99.9793 177.376C99.9793 177.6 99.9633 177.796 99.9313 177.964H94.8433C94.8673 178.644 95.0553 179.148 95.4073 179.476C95.7593 179.804 96.1953 179.968 96.7153 179.968C97.1713 179.968 97.5553 179.852 97.8673 179.62C98.1873 179.388 98.3833 179.08 98.4553 178.696H99.9193C99.8313 179.16 99.6473 179.572 99.3673 179.932C99.0873 180.292 98.7233 180.576 98.2753 180.784C97.8273 180.984 97.3273 181.084 96.7753 181.084C96.1353 181.084 95.5673 180.948 95.0713 180.676C94.5833 180.404 94.1993 180.012 93.9193 179.5C93.6393 178.988 93.4993 178.384 93.4993 177.688C93.4993 177 93.6393 176.4 93.9193 175.888C94.1993 175.376 94.5833 174.984 95.0713 174.712C95.5673 174.44 96.1353 174.304 96.7753 174.304C97.4233 174.304 97.9873 174.44 98.4673 174.712C98.9553 174.976 99.3273 175.344 99.5833 175.816C99.8473 176.28 99.9793 176.8 99.9793 177.376ZM98.5993 177.34C98.6153 176.908 98.5393 176.548 98.3713 176.26C98.2113 175.964 97.9873 175.748 97.6993 175.612C97.4193 175.468 97.1113 175.396 96.7753 175.396C96.2393 175.396 95.7913 175.56 95.4313 175.888C95.0713 176.216 94.8753 176.7 94.8433 177.34H98.5993ZM105.721 177.712V181H104.353V172.528H107.233C108.209 172.528 108.941 172.76 109.429 173.224C109.925 173.688 110.173 174.324 110.173 175.132C110.173 175.932 109.921 176.564 109.417 177.028C108.913 177.484 108.185 177.712 107.233 177.712H105.721ZM107.089 176.596C108.217 176.596 108.781 176.108 108.781 175.132C108.781 174.652 108.645 174.288 108.373 174.04C108.109 173.784 107.681 173.656 107.089 173.656H105.721V176.596H107.089ZM114.144 174.304C114.744 174.304 115.256 174.452 115.68 174.748C116.104 175.044 116.404 175.436 116.58 175.924V174.388H117.948V181H116.58V179.464C116.404 179.952 116.104 180.344 115.68 180.64C115.256 180.936 114.744 181.084 114.144 181.084C113.568 181.084 113.052 180.948 112.596 180.676C112.148 180.404 111.796 180.012 111.54 179.5C111.284 178.988 111.156 178.384 111.156 177.688C111.156 177 111.284 176.4 111.54 175.888C111.796 175.376 112.148 174.984 112.596 174.712C113.052 174.44 113.568 174.304 114.144 174.304ZM114.564 175.504C113.956 175.504 113.468 175.7 113.1 176.092C112.74 176.476 112.56 177.008 112.56 177.688C112.56 178.368 112.74 178.904 113.1 179.296C113.468 179.68 113.956 179.872 114.564 179.872C114.948 179.872 115.292 179.784 115.596 179.608C115.9 179.424 116.14 179.168 116.316 178.84C116.492 178.512 116.58 178.128 116.58 177.688C116.58 177.256 116.492 176.876 116.316 176.548C116.14 176.212 115.9 175.956 115.596 175.78C115.292 175.596 114.948 175.504 114.564 175.504ZM120.49 174.388L122.47 179.248L124.306 174.388H125.83L121.834 184.144H120.31L121.738 180.844L118.954 174.388H120.49ZM135.117 174.28C135.901 174.28 136.525 174.528 136.989 175.024C137.461 175.52 137.697 176.228 137.697 177.148V181H136.329V177.292C136.329 176.716 136.185 176.272 135.897 175.96C135.609 175.64 135.213 175.48 134.709 175.48C134.173 175.48 133.745 175.652 133.425 175.996C133.113 176.332 132.957 176.828 132.957 177.484V181H131.589V177.292C131.589 176.716 131.445 176.272 131.157 175.96C130.869 175.64 130.473 175.48 129.969 175.48C129.433 175.48 129.005 175.652 128.685 175.996C128.373 176.332 128.217 176.828 128.217 177.484V181H126.849V174.388H128.217V175.768C128.385 175.288 128.665 174.92 129.057 174.664C129.449 174.408 129.909 174.28 130.437 174.28C130.989 174.28 131.465 174.416 131.865 174.688C132.273 174.96 132.569 175.352 132.753 175.864C132.945 175.368 133.253 174.98 133.677 174.7C134.101 174.42 134.581 174.28 135.117 174.28ZM145.559 177.376C145.559 177.6 145.543 177.796 145.511 177.964H140.423C140.447 178.644 140.635 179.148 140.987 179.476C141.339 179.804 141.775 179.968 142.295 179.968C142.751 179.968 143.135 179.852 143.447 179.62C143.767 179.388 143.963 179.08 144.035 178.696H145.499C145.411 179.16 145.227 179.572 144.947 179.932C144.667 180.292 144.303 180.576 143.855 180.784C143.407 180.984 142.907 181.084 142.355 181.084C141.715 181.084 141.147 180.948 140.651 180.676C140.163 180.404 139.779 180.012 139.499 179.5C139.219 178.988 139.079 178.384 139.079 177.688C139.079 177 139.219 176.4 139.499 175.888C139.779 175.376 140.163 174.984 140.651 174.712C141.147 174.44 141.715 174.304 142.355 174.304C143.003 174.304 143.567 174.44 144.047 174.712C144.535 174.976 144.907 175.344 145.163 175.816C145.427 176.28 145.559 176.8 145.559 177.376ZM144.179 177.34C144.195 176.908 144.119 176.548 143.951 176.26C143.791 175.964 143.567 175.748 143.279 175.612C142.999 175.468 142.691 175.396 142.355 175.396C141.819 175.396 141.371 175.56 141.011 175.888C140.651 176.216 140.455 176.7 140.423 177.34H144.179ZM150.696 174.28C151.464 174.28 152.08 174.528 152.544 175.024C153.008 175.52 153.24 176.228 153.24 177.148V181H151.872V177.292C151.872 176.7 151.72 176.244 151.416 175.924C151.112 175.596 150.696 175.432 150.168 175.432C149.624 175.432 149.188 175.608 148.86 175.96C148.532 176.304 148.368 176.812 148.368 177.484V181H147V174.388H148.368V175.84C148.544 175.344 148.84 174.96 149.256 174.688C149.672 174.416 150.152 174.28 150.696 174.28ZM158.283 179.812V181H157.443C156.739 181 156.203 180.832 155.835 180.496C155.475 180.152 155.295 179.584 155.295 178.792V175.552H154.347V174.388H155.295V172.744H156.675V174.388H158.271V175.552H156.675V178.816C156.675 179.192 156.743 179.452 156.879 179.596C157.023 179.74 157.271 179.812 157.623 179.812H158.283Z" fill="#00030D"/>
<path d="M20.951 104.524H23.243V112H24.335V104.524H26.615V103.636H20.951V104.524ZM34.3192 108.7C34.3192 106.624 32.8672 105.316 30.9952 105.316C29.1352 105.316 27.6712 106.624 27.6712 108.7C27.6712 110.788 29.0872 112.108 30.9472 112.108C32.8192 112.108 34.3192 110.788 34.3192 108.7ZM28.7872 108.7C28.7872 107.044 29.8312 106.264 30.9832 106.264C32.1112 106.264 33.2032 107.044 33.2032 108.7C33.2032 110.368 32.0872 111.148 30.9472 111.148C29.8072 111.148 28.7872 110.368 28.7872 108.7ZM36.1149 110.2C36.1149 111.52 36.7749 112 37.9389 112H38.9229V111.076H38.1189C37.4469 111.076 37.2069 110.848 37.2069 110.2V106.324H38.9229V105.424H37.2069V103.768H36.1149V105.424H35.2629V106.324H36.1149V110.2ZM39.958 108.688C39.958 110.728 41.314 112.108 43.066 112.108C44.278 112.108 45.13 111.484 45.526 110.776V112H46.63V105.424H45.526V106.624C45.142 105.94 44.302 105.316 43.078 105.316C41.314 105.316 39.958 106.636 39.958 108.688ZM45.526 108.7C45.526 110.248 44.494 111.148 43.294 111.148C42.094 111.148 41.074 110.236 41.074 108.688C41.074 107.14 42.094 106.264 43.294 106.264C44.494 106.264 45.526 107.176 45.526 108.7ZM48.5954 112H49.6874V103.12H48.5954V112Z" fill="white" fill-opacity="0.7"/>
<path d="M25.403 136.566H26.573V135.09C29.003 134.874 30.335 133.182 30.335 131.436C30.335 128.898 28.373 128.412 26.573 127.98V124.092C27.437 124.308 27.941 124.974 28.013 125.694H30.209C30.047 123.66 28.643 122.526 26.573 122.346V120.888H25.403V122.364C23.171 122.562 21.623 123.948 21.623 125.964C21.623 128.502 23.603 129.006 25.403 129.456V133.416C24.395 133.236 23.891 132.57 23.819 131.67H21.623C21.623 133.704 23.207 134.91 25.403 135.108V136.566ZM28.265 131.544C28.265 132.48 27.653 133.236 26.573 133.416V129.762C27.545 130.068 28.265 130.518 28.265 131.544ZM23.711 125.856C23.711 124.758 24.413 124.164 25.403 124.038V127.674C24.431 127.368 23.711 126.9 23.711 125.856ZM33.348 134.82H42.096V133.11H36.39C38.496 131.184 41.736 128.754 41.736 125.568C41.736 123.21 40.224 121.608 37.56 121.608C35.238 121.608 33.402 122.994 33.33 125.838H35.31C35.364 124.362 36.138 123.354 37.578 123.354C39.108 123.354 39.702 124.29 39.702 125.658C39.702 128.232 36.444 130.608 33.348 133.326V134.82ZM45.4827 135H47.5527V121.878H43.8087V123.75H45.4827V135ZM50.5516 128.268C50.5516 132.084 51.5596 134.964 55.2316 134.964C58.9036 134.964 59.9116 132.084 59.9116 128.268C59.9116 124.524 58.9036 121.644 55.2316 121.644C51.5596 121.644 50.5516 124.524 50.5516 128.268ZM57.8956 128.268C57.8956 130.842 57.6256 133.092 55.2316 133.092C52.8376 133.092 52.5676 130.842 52.5676 128.268C52.5676 125.82 52.8376 123.516 55.2316 123.516C57.6256 123.516 57.8956 125.82 57.8956 128.268Z" fill="white"/>
<path d="M43.3616 62.5863L43.8939 59.2158L42.7081 59.1884H37.0461L40.9809 34.3179C40.9926 34.2419 41.0314 34.1727 41.09 34.1228C41.1487 34.0729 41.2234 34.0456 41.3005 34.046H50.8476C54.017 34.046 56.2043 34.7035 57.3463 36.0011C57.8816 36.6099 58.2226 37.246 58.3875 37.9461C58.5605 38.6806 58.5636 39.5583 58.3946 40.6286L58.3824 40.7068V41.3926L58.9178 41.695C59.3265 41.9014 59.6938 42.1806 60.0017 42.5188C60.4597 43.0393 60.7559 43.7008 60.8811 44.4851C61.0104 45.2917 60.9676 46.2515 60.7559 47.3381C60.5116 48.588 60.1167 49.6767 59.5834 50.5675C59.1128 51.3655 58.4801 52.0567 57.7259 52.5967C57.0175 53.0979 56.1758 53.4783 55.2241 53.7218C54.302 53.9613 53.2506 54.082 52.0974 54.082H51.3544C50.8231 54.082 50.3071 54.2728 49.902 54.6147C49.4975 54.9602 49.2292 55.4377 49.1448 55.962L49.0888 56.2654L48.1483 62.2058L48.1056 62.4239C48.0944 62.4929 48.0751 62.5274 48.0466 62.5507C48.0189 62.5732 47.9845 62.5858 47.9488 62.5863H43.3616Z" fill="#253B80"/>
<path d="M59.4285 40.7701C59.4 40.9519 59.3675 41.1377 59.3308 41.3287C58.0724 47.779 53.767 50.0073 48.2683 50.0073H45.4686C44.7961 50.0073 44.2295 50.4948 44.1247 51.157L42.6913 60.2328L42.2853 62.8054C42.2692 62.9075 42.2754 63.0118 42.3034 63.1112C42.3315 63.2107 42.3809 63.3028 42.4481 63.3814C42.5153 63.46 42.5987 63.5231 42.6927 63.5664C42.7867 63.6097 42.8889 63.6321 42.9924 63.6321H47.958C48.546 63.6321 49.0456 63.2056 49.1381 62.6267L49.187 62.3748L50.1219 56.4516L50.1819 56.1266C50.2735 55.5456 50.774 55.1191 51.362 55.1191H52.1047C56.9157 55.1191 60.6819 53.169 61.7826 47.5261C62.2424 45.1688 62.0044 43.2005 60.7877 41.8162C60.402 41.388 59.9414 41.0335 59.4285 40.7701Z" fill="#179BD7"/>
<path d="M58.136 40.3246C57.7319 40.2086 57.3208 40.1181 56.9052 40.0536C56.084 39.9283 55.254 39.8683 54.4231 39.8739H46.9012C46.6149 39.8737 46.338 39.9751 46.1205 40.1598C45.903 40.3444 45.7593 40.6002 45.7154 40.8809L44.1152 50.9365L44.0692 51.2299C44.119 50.9097 44.2827 50.6179 44.5306 50.4071C44.7785 50.1964 45.0942 50.0806 45.4207 50.0808H48.2363C53.7663 50.0808 58.0961 47.8526 59.3617 41.4067C59.3996 41.2159 59.4313 41.0301 59.46 40.8484C59.126 40.6746 58.7779 40.529 58.4194 40.4129C58.3255 40.382 58.231 40.3525 58.136 40.3246Z" fill="#222D65"/>
<path d="M45.7902 40.8467C45.8336 40.5649 45.9766 40.3079 46.1932 40.1226C46.4097 39.9373 46.6855 39.8358 46.9705 39.8367H54.4573C55.3443 39.8367 56.1722 39.8948 56.9278 40.0171C57.4391 40.0975 57.9434 40.2178 58.436 40.3769C58.8077 40.5002 59.1529 40.646 59.4716 40.8141C59.8464 38.4221 59.4686 36.7934 58.1763 35.3187C56.7517 33.6951 54.1803 33 50.8901 33H41.338C40.6659 33 40.0926 33.4892 39.9887 34.1547L36.0101 59.3949C35.9916 59.5121 35.9986 59.6319 36.0308 59.7461C36.0629 59.8603 36.1194 59.9662 36.1963 60.0565C36.2733 60.1467 36.3688 60.2193 36.4764 60.269C36.584 60.3188 36.7011 60.3447 36.8197 60.3448H42.7169L44.1975 50.9428L45.7902 40.8467Z" fill="#253B80"/>
<defs>
<linearGradient id="paint0_linear_1_115" x1="-721" y1="-272.5" x2="257.544" y2="112.612" gradientUnits="userSpaceOnUse">
<stop stop-color="white"/>
<stop offset="1" stop-color="#14101D"/>
</linearGradient>
<linearGradient id="paint1_linear_1_115" x1="184.992" y1="73.3516" x2="196.466" y2="133.778" gradientUnits="userSpaceOnUse">
<stop offset="0.00887753" stop-color="#DEF9FA"/>
<stop offset="0.1723" stop-color="#BEF3F5"/>
<stop offset="0.4204" stop-color="#9DEDF0"/>
<stop offset="0.5512" stop-color="#7DE7EB"/>
<stop offset="0.7154" stop-color="#5CE1E6"/>
<stop offset="1" stop-color="#33BBCF"/>
</linearGradient>
<linearGradient id="paint2_linear_1_115" x1="146.133" y1="130.352" x2="150.593" y2="192.638" gradientUnits="userSpaceOnUse">
<stop offset="0.00887753" stop-color="#DEF9FA"/>
<stop offset="0.1723" stop-color="#BEF3F5"/>
<stop offset="0.4204" stop-color="#9DEDF0"/>
<stop offset="0.5512" stop-color="#7DE7EB"/>
<stop offset="0.7154" stop-color="#5CE1E6"/>
<stop offset="1" stop-color="#33BBCF"/>
</linearGradient>
<linearGradient id="paint3_linear_1_115" x1="181.537" y1="92.9297" x2="186.959" y2="128.141" gradientUnits="userSpaceOnUse">
<stop offset="0.00887753" stop-color="#DEF9FA"/>
<stop offset="0.1723" stop-color="#BEF3F5"/>
<stop offset="0.4204" stop-color="#9DEDF0"/>
<stop offset="0.5512" stop-color="#7DE7EB"/>
<stop offset="0.7154" stop-color="#5CE1E6"/>
<stop offset="1" stop-color="#33BBCF"/>
</linearGradient>
</defs>
</svg>
