<svg width="401" height="232" viewBox="0 0 401 232" fill="none" xmlns="http://www.w3.org/2000/svg">
<g filter="url(#filter0_b_1_272)">
<rect width="178" height="284.248" rx="13.7985" transform="matrix(0.866025 0.5 -0.866025 0.5 246.166 0)" fill="url(#paint0_linear_1_272)"/>
<rect x="-2.05613e-08" y="0.344961" width="177.31" height="283.558" rx="13.4535" transform="matrix(0.866025 0.5 -0.866025 0.5 246.465 0.172481)" stroke="url(#paint1_linear_1_272)" stroke-width="0.689923"/>
</g>
<g filter="url(#filter1_b_1_272)">
<path d="M89.6235 90.3799L243.776 179.38L178.052 217.326C166.786 223.83 161.153 227.083 154.152 227.083C147.152 227.083 141.519 223.83 130.253 217.326L23.8996 155.923C12.6332 149.418 7.00001 146.166 7.00001 142.124C7.00001 138.083 12.6332 134.83 23.8996 128.326L89.6235 90.3799Z" fill="url(#paint2_linear_1_272)"/>
</g>
<path d="M321.149 73.3961L313.557 77.7798L312.029 76.8981L315.331 74.9919L312.083 73.1167L308.781 75.0229L307.265 74.1474L314.858 69.7636L316.374 70.6391L313.298 72.415L316.546 74.2902L319.622 72.5143L321.149 73.3961ZM323.719 76.6801C324.299 77.0154 324.697 77.3859 324.912 77.7916C325.135 78.2014 325.146 78.6174 324.945 79.0396C324.751 79.4577 324.342 79.8469 323.719 80.207C323.095 80.5671 322.421 80.8031 321.697 80.9149C320.973 81.0266 320.252 81.0204 319.535 80.8962C318.832 80.772 318.191 80.5423 317.61 80.207C317.029 79.8717 316.628 79.4991 316.405 79.0893C316.197 78.6795 316.19 78.2656 316.384 77.8475C316.578 77.4294 316.986 77.0403 317.61 76.6801C318.234 76.32 318.908 76.084 319.632 75.9723C320.363 75.8563 321.08 75.8605 321.783 75.9847C322.493 76.113 323.138 76.3448 323.719 76.6801ZM322.407 77.4376C321.984 77.1934 321.475 77.0734 320.879 77.0775C320.292 77.0775 319.714 77.241 319.148 77.568C318.581 77.8951 318.295 78.2304 318.288 78.5739C318.288 78.9134 318.499 79.2052 318.922 79.4495C319.345 79.6937 319.851 79.8158 320.438 79.8158C321.034 79.8117 321.614 79.6461 322.181 79.3191C322.747 78.992 323.03 78.6588 323.03 78.3194C323.038 77.9758 322.83 77.6819 322.407 77.4376ZM330.598 80.6519C331.179 80.9872 331.577 81.3577 331.792 81.7633C332.014 82.1732 332.025 82.5892 331.824 83.0114C331.63 83.4295 331.222 83.8186 330.598 84.1788C329.974 84.5389 329.3 84.7749 328.576 84.8866C327.852 84.9984 327.131 84.9922 326.414 84.868C325.712 84.7438 325.07 84.5141 324.489 84.1788C323.909 83.8435 323.507 83.4709 323.285 83.0611C323.077 82.6513 323.07 82.2373 323.263 81.8192C323.457 81.4011 323.865 81.012 324.489 80.6519C325.113 80.2917 325.787 80.0558 326.511 79.944C327.243 79.8281 327.959 79.8323 328.662 79.9564C329.372 80.0848 330.017 80.3166 330.598 80.6519ZM329.286 81.4094C328.863 81.1652 328.354 81.0451 327.759 81.0493C327.171 81.0493 326.594 81.2128 326.027 81.5398C325.461 81.8668 325.174 82.2021 325.167 82.5457C325.167 82.8852 325.378 83.177 325.801 83.4212C326.224 83.6655 326.73 83.7876 327.318 83.7876C327.913 83.7834 328.494 83.6179 329.06 83.2908C329.626 82.9638 329.91 82.6306 329.91 82.2911C329.917 81.9476 329.709 81.6536 329.286 81.4094Z" fill="white"/>
<path d="M336.843 86.7038C337.208 87.0225 337.355 87.3599 337.284 87.7159C337.226 88.0719 336.968 88.3824 336.509 88.6473C335.871 89.0157 335.151 89.1834 334.348 89.1502C333.559 89.1171 332.76 88.8667 331.949 88.3989L328.691 86.5175L336.284 82.1337L339.478 83.9779C340.245 84.4208 340.664 84.8575 340.736 85.288C340.815 85.7227 340.55 86.116 339.94 86.4678C339.467 86.741 338.954 86.8921 338.402 86.9211C337.857 86.9542 337.338 86.8818 336.843 86.7038ZM334.617 84.8472L335.982 85.6358C336.362 85.8552 336.732 85.9731 337.09 85.9897C337.463 86.0063 337.807 85.9235 338.123 85.7413C338.438 85.5592 338.585 85.3626 338.564 85.1514C338.542 84.9403 338.331 84.7189 337.929 84.487L336.585 83.7109L334.617 84.8472ZM332.885 87.511C333.287 87.7428 333.681 87.8711 334.068 87.896C334.462 87.9167 334.828 87.8297 335.165 87.6352C335.502 87.4406 335.649 87.2274 335.606 86.9956C335.577 86.7638 335.362 86.532 334.961 86.3002L333.53 85.4743L331.444 86.6789L332.885 87.511ZM343.874 88.3169C344.376 88.6066 344.688 88.9233 344.81 89.2669C344.932 89.6105 344.867 89.9416 344.616 90.2604L345.853 89.5463L347.359 90.4156L341.401 93.8556L339.895 92.9863L341.142 92.266C340.59 92.4109 340.013 92.4502 339.411 92.384C338.816 92.3136 338.267 92.1335 337.765 91.8438C337.264 91.554 336.934 91.2228 336.776 90.8503C336.618 90.4777 336.654 90.0927 336.884 89.6953C337.127 89.2979 337.561 88.9192 338.185 88.559C338.809 88.1989 339.461 87.9505 340.142 87.8139C340.838 87.6773 341.508 87.6546 342.153 87.7456C342.799 87.8367 343.372 88.0271 343.874 88.3169ZM343.025 89.3538C342.551 89.0806 342.017 88.9502 341.422 88.9626C340.827 88.9751 340.261 89.1365 339.723 89.447C339.185 89.7574 338.905 90.0845 338.884 90.428C338.87 90.7675 339.099 91.0738 339.572 91.347C340.031 91.6119 340.562 91.7403 341.164 91.732C341.781 91.7237 342.351 91.5685 342.874 91.2663C343.405 90.96 343.673 90.6309 343.681 90.279C343.702 89.9272 343.483 89.6188 343.025 89.3538ZM352.368 93.2084C353.056 93.6058 353.379 94.0529 353.336 94.5497C353.293 95.0464 352.863 95.5307 352.045 96.0026L348.582 98.002L347.077 97.1327L350.368 95.2327C350.841 94.9595 351.085 94.678 351.099 94.3882C351.121 94.0943 350.92 93.8252 350.497 93.581C350.067 93.3326 349.583 93.2147 349.045 93.2271C348.507 93.2395 347.977 93.3968 347.453 93.699L344.291 95.5245L342.775 94.649L348.733 91.2091L350.249 92.0846L349.056 92.7738C349.615 92.6331 350.185 92.602 350.766 92.6807C351.361 92.7593 351.895 92.9352 352.368 93.2084ZM353.401 100.784L354.036 98.1452L351.433 99.6479L349.917 98.7724L357.875 94.1775L359.392 95.053L354.918 97.6361L359.349 97.338L361.145 98.375L355.671 98.642L355.251 101.852L353.401 100.784Z" fill="#5CE1E6"/>
<path d="M309.502 58.2643C307.611 57.1726 305.202 56.4292 302.579 56.128C299.957 55.8269 297.239 55.9814 294.768 56.5722C292.298 57.163 290.186 58.1635 288.701 59.4471C287.215 60.7307 286.422 62.2398 286.422 63.7836C286.422 65.3274 287.215 66.8366 288.701 68.1202C290.186 69.4038 292.298 70.4043 294.768 70.995C297.239 71.5858 299.957 71.7404 302.579 71.4392C305.202 71.1381 307.611 70.3946 309.502 69.303L304.722 66.5433C303.776 67.0891 302.572 67.4608 301.261 67.6114C299.949 67.762 298.59 67.6847 297.355 67.3893C296.12 67.0939 295.064 66.5937 294.321 65.9519C293.579 65.3101 293.182 64.5555 293.182 63.7836C293.182 63.0117 293.579 62.2572 294.321 61.6154C295.064 60.9735 296.12 60.4733 297.355 60.1779C298.59 59.8825 299.949 59.8052 301.261 59.9558C302.572 60.1064 303.776 60.4781 304.722 61.0239L309.502 58.2643Z" fill="white"/>
<path d="M309.502 58.2643C308.246 57.5394 306.756 56.9645 305.116 56.5722C303.475 56.1799 301.717 55.9781 299.942 55.9781C298.166 55.9781 296.408 56.1799 294.768 56.5722C293.128 56.9645 291.637 57.5394 290.382 58.2643L295.162 61.0239C295.79 60.6615 296.535 60.3741 297.355 60.1779C298.175 59.9818 299.054 59.8808 299.942 59.8808C300.83 59.8808 301.709 59.9818 302.529 60.1779C303.349 60.3741 304.094 60.6615 304.722 61.0239L309.502 58.2643Z" fill="#5CE1E6"/>
<circle cx="3.44961" cy="3.44961" r="3.44961" transform="matrix(0.866025 0.5 -0.866025 0.5 299.942 60.334)" fill="#5CE1E6"/>
<path d="M302.929 65.5084C303.322 65.2819 303.633 65.013 303.845 64.7171C304.058 64.4211 304.167 64.1039 304.167 63.7836C304.167 63.4633 304.058 63.1461 303.845 62.8501C303.633 62.5542 303.322 62.2853 302.929 62.0588C302.537 61.8323 302.071 61.6526 301.559 61.53C301.046 61.4074 300.497 61.3444 299.942 61.3444C299.387 61.3444 298.838 61.4074 298.325 61.53C297.813 61.6526 297.347 61.8323 296.954 62.0588L299.942 63.7836L302.929 65.5084Z" fill="white"/>
<g opacity="0.9">
<rect opacity="0.75" x="4.47035e-08" y="-0.25" width="19.2897" height="19.2897" rx="9.64486" transform="matrix(-0.866025 -0.5 0.866026 -0.5 155.154 216.496)" stroke="url(#paint3_linear_1_272)" stroke-width="0.5"/>
<rect opacity="0.7" x="4.47035e-08" y="-0.25" width="19.2897" height="19.2897" rx="9.64486" transform="matrix(-0.866025 -0.5 0.866026 -0.5 144.808 210.522)" stroke="url(#paint4_linear_1_272)" stroke-width="0.5"/>
</g>
<g filter="url(#filter2_d_1_272)">
<path d="M250.501 23.3621L251.652 24.0265L249.222 25.4298L241.629 21.046L242.919 20.3009L249.361 24.0203L250.501 23.3621ZM244.902 25.8871C245.275 26.1023 245.515 26.3569 245.623 26.6508C245.73 26.9447 245.68 27.2593 245.472 27.5946C245.257 27.9341 244.87 28.2652 244.31 28.5881C243.751 28.911 243.181 29.1325 242.6 29.2525C242.012 29.3767 241.464 29.4077 240.955 29.3456C240.439 29.2877 239.994 29.1511 239.621 28.9358C239.205 28.6957 238.958 28.4246 238.879 28.1224C238.793 27.8244 238.897 27.5118 239.191 27.1848C238.56 27.3752 237.947 27.4477 237.352 27.4021C236.764 27.3607 236.23 27.2014 235.75 26.924C235.011 26.4976 234.696 26.0133 234.803 25.471C234.918 24.9329 235.398 24.4196 236.244 23.9311C237.09 23.4427 237.979 23.1653 238.911 23.0991C239.844 23.0411 240.679 23.2253 241.417 23.6517C241.898 23.9291 242.174 24.2375 242.245 24.5769C242.324 24.9205 242.199 25.2744 241.869 25.6387C242.435 25.469 242.98 25.4069 243.504 25.4524C244.02 25.5021 244.486 25.647 244.902 25.8871ZM243.493 26.4769C243.106 26.2534 242.679 26.152 242.213 26.1727C241.747 26.2017 241.295 26.3424 240.858 26.5949C240.421 26.8474 240.177 27.1082 240.127 27.3773C240.084 27.6505 240.256 27.8989 240.643 28.1224C241.03 28.3459 241.464 28.4432 241.944 28.4142C242.418 28.3894 242.869 28.2528 243.299 28.0044C243.73 27.7561 243.966 27.4953 244.009 27.2221C244.052 26.9489 243.88 26.7005 243.493 26.4769ZM240.288 24.3782C239.851 24.1257 239.36 24.0119 238.815 24.0367C238.277 24.0657 237.757 24.225 237.255 24.5148C236.753 24.8046 236.477 25.1047 236.427 25.4152C236.384 25.7298 236.581 26.0133 237.019 26.2658C237.463 26.5225 237.951 26.626 238.481 26.5763C239.012 26.5349 239.517 26.3755 239.998 26.0982C240.471 25.825 240.747 25.5331 240.826 25.2227C240.905 24.9122 240.725 24.6307 240.288 24.3782ZM236.568 33.0083C236.067 33.298 235.547 33.4947 235.009 33.5981C234.478 33.7058 233.969 33.7223 233.482 33.6478C232.987 33.5774 232.55 33.4326 232.17 33.2132C231.689 32.9358 231.424 32.6254 231.374 32.2818C231.324 31.9465 231.51 31.6194 231.933 31.3007L231.879 31.2697C231.205 31.4849 230.571 31.5905 229.976 31.5863C229.381 31.5905 228.821 31.4414 228.298 31.1393C227.66 30.7708 227.352 30.3486 227.373 29.8726C227.402 29.4007 227.81 28.937 228.599 28.4817C229.409 28.0139 230.266 27.7552 231.17 27.7055C232.08 27.66 232.976 27.8504 233.858 28.2768L232.643 28.9784C232.17 28.7549 231.671 28.6452 231.148 28.6493C230.632 28.6576 230.148 28.7921 229.696 29.0529C229.273 29.2972 229.062 29.5476 229.062 29.8043C229.054 30.065 229.226 30.2969 229.578 30.4997C230.001 30.7439 230.488 30.835 231.04 30.7729C231.585 30.715 232.166 30.508 232.783 30.152L233.073 29.9843L234.084 30.568L233.794 30.7357C232.611 31.4021 232.424 31.9692 233.234 32.437C233.586 32.6398 233.969 32.7371 234.385 32.7288C234.801 32.7206 235.195 32.6088 235.568 32.3935C235.941 32.1783 236.138 31.932 236.16 31.6546C236.188 31.3814 236.013 31.1061 235.633 30.8288L236.837 30.1334C237.533 30.5928 237.859 31.071 237.816 31.5677C237.78 32.0686 237.364 32.5488 236.568 33.0083ZM229.107 37.316C228.605 37.6057 228.086 37.8024 227.548 37.9058C227.017 38.0135 226.508 38.03 226.021 37.9555C225.526 37.8851 225.089 37.7403 224.709 37.5209C224.228 37.2435 223.963 36.9331 223.913 36.5895C223.863 36.2542 224.049 35.9271 224.472 35.6084L224.418 35.5774C223.744 35.7926 223.11 35.8982 222.515 35.894C221.919 35.8982 221.36 35.7491 220.837 35.447C220.199 35.0785 219.89 34.6563 219.912 34.1803C219.941 33.7084 220.349 33.2447 221.138 32.7894C221.948 32.3216 222.805 32.0629 223.708 32.0132C224.619 31.9677 225.515 32.1581 226.397 32.5845L225.182 33.2861C224.709 33.0626 224.21 32.9529 223.687 32.957C223.171 32.9653 222.687 33.0998 222.235 33.3606C221.812 33.6049 221.6 33.8553 221.6 34.112C221.593 34.3728 221.765 34.6046 222.117 34.8074C222.54 35.0516 223.027 35.1427 223.579 35.0806C224.124 35.0227 224.705 34.8157 225.322 34.4597L225.612 34.292L226.623 34.8757L226.333 35.0434C225.15 35.7098 224.963 36.2769 225.773 36.7447C226.125 36.9475 226.508 37.0448 226.924 37.0365C227.34 37.0283 227.734 36.9165 228.107 36.7012C228.48 36.486 228.677 36.2397 228.699 35.9623C228.727 35.6891 228.552 35.4138 228.172 35.1365L229.376 34.4411C230.072 34.9005 230.398 35.3787 230.355 35.8754C230.319 36.3763 229.903 36.8565 229.107 37.316ZM214.985 44.178L211.102 38.6704L212.393 37.9253L216.093 43.377L219.857 41.2038L220.922 41.8185L215.91 44.712L214.985 44.178ZM213.223 44.8849L214.374 45.5493L211.943 46.9526L204.35 42.5688L205.641 41.8237L212.083 45.543L213.223 44.8849ZM203.375 49.5396C204.35 49.9536 205.214 49.9432 205.967 49.5086C206.512 49.194 206.702 48.8317 206.537 48.4219C206.379 48.0163 205.838 47.5464 204.913 47.0124L204.537 46.8075C204.816 47.0931 204.892 47.4057 204.763 47.7451C204.634 48.0846 204.325 48.395 203.838 48.6765C203.092 49.107 202.285 49.3161 201.418 49.3037C200.55 49.2912 199.711 49.0511 198.901 48.5834C198.414 48.3019 198.073 47.9935 197.88 47.6582C197.693 47.327 197.679 46.9834 197.837 46.6274C198.001 46.2756 198.367 45.9361 198.934 45.6091C200.031 44.9758 201.124 44.7377 202.214 44.895C203.304 45.0523 204.444 45.4746 205.634 46.1617C206.996 46.9483 207.796 47.6623 208.032 48.304C208.269 48.9456 207.889 49.5541 206.892 50.1295C206.146 50.56 205.365 50.767 204.548 50.7504C203.723 50.738 202.945 50.5579 202.214 50.2102L203.375 49.5396ZM203.289 46.2114C202.823 45.9423 202.296 45.7954 201.708 45.7706C201.128 45.7499 200.572 45.8927 200.041 46.199C199.59 46.4598 199.364 46.7433 199.364 47.0497C199.357 47.3601 199.59 47.652 200.063 47.9252C200.572 48.2191 201.099 48.366 201.644 48.366C202.189 48.366 202.694 48.2315 203.16 47.9624C203.583 47.7182 203.827 47.4326 203.892 47.1056C203.956 46.7785 203.755 46.4805 203.289 46.2114ZM199.374 54.4825C198.872 54.7723 198.352 54.9689 197.815 55.0724C197.284 55.18 196.775 55.1966 196.287 55.1221C195.793 55.0517 195.355 54.9068 194.975 54.6874C194.495 54.4101 194.23 54.0996 194.179 53.756C194.129 53.4207 194.316 53.0937 194.739 52.7749L194.685 52.7439C194.011 52.9592 193.376 53.0647 192.781 53.0606C192.186 53.0647 191.627 52.9157 191.104 52.6135C190.465 52.2451 190.157 51.8229 190.179 51.3468C190.207 50.8749 190.616 50.4113 191.405 49.9559C192.215 49.4882 193.072 49.2294 193.975 49.1798C194.886 49.1342 195.782 49.3246 196.664 49.751L195.448 50.4527C194.975 50.2291 194.477 50.1194 193.954 50.1236C193.437 50.1318 192.953 50.2664 192.502 50.5272C192.079 50.7714 191.867 51.0219 191.867 51.2785C191.86 51.5393 192.032 51.7711 192.383 51.9739C192.806 52.2182 193.294 52.3092 193.846 52.2472C194.391 52.1892 194.972 51.9822 195.588 51.6262L195.879 51.4586L196.89 52.0422L196.599 52.2099C195.416 52.8764 195.23 53.4435 196.04 53.9112C196.391 54.1141 196.775 54.2114 197.191 54.2031C197.607 54.1948 198.001 54.083 198.374 53.8678C198.747 53.6525 198.944 53.4062 198.965 53.1289C198.994 52.8557 198.818 52.5804 198.438 52.303L199.643 51.6076C200.338 52.0671 200.665 52.5452 200.622 53.0419C200.586 53.5428 200.17 54.023 199.374 54.4825ZM188.317 60.8664C187.815 61.1562 187.295 61.3528 186.757 61.4563C186.227 61.564 185.718 61.5805 185.23 61.506C184.735 61.4356 184.298 61.2907 183.918 61.0713C183.438 60.794 183.172 60.4835 183.122 60.14C183.072 59.8046 183.258 59.4776 183.681 59.1589L183.628 59.1278C182.954 59.3431 182.319 59.4486 181.724 59.4445C181.129 59.4486 180.57 59.2996 180.046 58.9974C179.408 58.629 179.1 58.2068 179.121 57.7307C179.15 57.2588 179.559 56.7952 180.347 56.3399C181.158 55.8721 182.014 55.6134 182.918 55.5637C183.828 55.5182 184.725 55.7086 185.606 56.135L184.391 56.8366C183.918 56.6131 183.42 56.5034 182.896 56.5075C182.38 56.5158 181.896 56.6503 181.444 56.9111C181.021 57.1553 180.81 57.4058 180.81 57.6624C180.803 57.9232 180.975 58.155 181.326 58.3579C181.749 58.6021 182.237 58.6932 182.789 58.6311C183.334 58.5731 183.914 58.3662 184.531 58.0102L184.821 57.8425L185.832 58.4262L185.542 58.5938C184.359 59.2603 184.172 59.8274 184.983 60.2952C185.334 60.498 185.718 60.5953 186.133 60.587C186.549 60.5787 186.944 60.467 187.316 60.2517C187.689 60.0365 187.886 59.7902 187.908 59.5128C187.937 59.2396 187.761 58.9643 187.381 58.687L188.586 57.9915C189.281 58.451 189.607 58.9291 189.564 59.4259C189.528 59.9268 189.113 60.407 188.317 60.8664ZM181.329 62.5911C181.702 62.8063 181.942 63.0609 182.049 63.3548C182.157 63.6487 182.107 63.9633 181.899 64.2986C181.684 64.6381 181.296 64.9692 180.737 65.2921C180.178 65.615 179.608 65.8365 179.027 65.9565C178.439 66.0807 177.891 66.1118 177.382 66.0497C176.865 65.9917 176.421 65.8551 176.048 65.6398C175.632 65.3998 175.385 65.1286 175.306 64.8264C175.22 64.5284 175.324 64.2158 175.618 63.8888C174.987 64.0792 174.374 64.1517 173.779 64.1061C173.191 64.0648 172.657 63.9054 172.176 63.628C171.438 63.2017 171.122 62.7173 171.23 62.1751C171.345 61.6369 171.825 61.1236 172.671 60.6351C173.517 60.1467 174.406 59.8693 175.338 59.8031C176.27 59.7451 177.106 59.9294 177.844 60.3557C178.325 60.6331 178.601 60.9415 178.672 61.2809C178.751 61.6245 178.626 61.9784 178.296 62.3427C178.862 62.173 179.407 62.1109 179.931 62.1564C180.447 62.2061 180.913 62.351 181.329 62.5911ZM179.92 63.181C179.533 62.9574 179.106 62.856 178.64 62.8767C178.174 62.9057 177.722 63.0464 177.285 63.2989C176.848 63.5514 176.604 63.8122 176.554 64.0813C176.511 64.3545 176.683 64.6029 177.07 64.8264C177.457 65.05 177.891 65.1472 178.371 65.1183C178.844 65.0934 179.296 64.9568 179.726 64.7084C180.156 64.4601 180.393 64.1993 180.436 63.9261C180.479 63.6529 180.307 63.4045 179.92 63.181ZM176.715 61.0822C176.278 60.8297 175.786 60.7159 175.241 60.7407C174.704 60.7697 174.184 60.9291 173.682 61.2188C173.18 61.5086 172.904 61.8087 172.854 62.1192C172.811 62.4338 173.008 62.7173 173.445 62.9698C173.89 63.2265 174.378 63.33 174.908 63.2803C175.439 63.2389 175.944 63.0795 176.425 62.8022C176.898 62.529 177.174 62.2371 177.253 61.9267C177.332 61.6162 177.152 61.3347 176.715 61.0822ZM168.683 65.6949C168.217 65.492 167.761 65.3906 167.317 65.3906C166.865 65.3947 166.446 65.5086 166.058 65.7321C165.513 66.0467 165.323 66.4048 165.488 66.8063C165.653 67.2161 166.202 67.6901 167.134 68.2283L167.51 68.4332C167.238 68.1434 167.166 67.8246 167.295 67.4769C167.424 67.1375 167.729 66.8291 168.209 66.5517C168.955 66.1212 169.762 65.9122 170.629 65.9246C171.504 65.9412 172.343 66.1813 173.146 66.6449C173.633 66.9264 173.974 67.2348 174.168 67.5701C174.361 67.9054 174.375 68.2489 174.211 68.6008C174.053 68.9568 173.691 69.2983 173.124 69.6253C172.027 70.2587 170.937 70.4988 169.855 70.3456C168.772 70.2007 167.639 69.7868 166.456 69.1038C165.116 68.3297 164.305 67.6177 164.026 66.9678C163.739 66.322 164.083 65.7176 165.058 65.1546C165.811 64.72 166.614 64.5006 167.467 64.4965C168.32 64.5006 169.113 64.6765 169.844 65.0243L168.683 65.6949ZM168.769 69.023C169.235 69.2921 169.758 69.437 170.339 69.4577C170.92 69.4867 171.479 69.3459 172.017 69.0355C172.461 68.7788 172.687 68.4953 172.694 68.1848C172.694 67.8785 172.454 67.5866 171.974 67.3093C171.464 67.0154 170.941 66.8663 170.403 66.8622C169.858 66.8622 169.353 66.9967 168.887 67.2658C168.614 67.4231 168.414 67.6011 168.285 67.7998C168.156 68.0068 168.123 68.2158 168.188 68.4269C168.26 68.6422 168.453 68.8409 168.769 69.023ZM161.321 68.5166C160.956 69.6467 160.805 70.6319 160.87 71.4723C160.934 72.3209 161.293 72.9335 161.945 73.3102C162.332 73.5338 162.738 73.6559 163.161 73.6766C163.576 73.7014 163.996 73.5917 164.419 73.3475C164.856 73.095 165.043 72.8218 164.978 72.5279C164.921 72.2381 164.645 71.9338 164.15 71.6151L165.344 70.9259C166.161 71.4557 166.559 71.9918 166.538 72.5341C166.509 73.0805 166.118 73.571 165.365 74.0057C164.627 74.432 163.852 74.6514 163.042 74.6639C162.232 74.6846 161.483 74.4962 160.794 74.0988C160.242 73.7801 159.855 73.3578 159.633 72.8321C159.404 72.3105 159.31 71.76 159.353 71.1804C159.404 70.605 159.536 70.0566 159.751 69.535L156.148 71.6151L155.148 71.0376L160.418 67.9951L161.321 68.5166ZM156.323 77.736L157.474 78.4004L155.043 79.8037L147.45 75.4199L148.741 74.6748L155.183 78.3941L156.323 77.736ZM148.938 79.0066C147.727 78.307 146.562 77.8827 145.443 77.7337C144.332 77.5888 143.274 77.8062 142.27 78.3857C141.267 78.9652 140.894 79.5779 141.152 80.2237C141.41 80.8694 142.141 81.54 143.346 82.2355C144.543 82.9268 145.698 83.3449 146.809 83.4897C147.927 83.6388 148.989 83.4235 149.992 82.844C150.996 82.2644 151.373 81.6539 151.122 81.0122C150.871 80.3706 150.143 79.7021 148.938 79.0066ZM144.572 81.5276C143.697 81.0226 143.134 80.5734 142.883 80.1802C142.632 79.7869 142.815 79.4123 143.432 79.0563C144.056 78.6962 144.708 78.5885 145.389 78.7334C146.07 78.8783 146.848 79.2033 147.723 79.7083C148.591 80.2092 149.146 80.6542 149.39 81.0433C149.634 81.4324 149.444 81.807 148.82 82.1672C148.203 82.5232 147.555 82.6287 146.873 82.4838C146.199 82.3431 145.432 82.0244 144.572 81.5276ZM138.398 81.7514C138.032 82.8815 137.882 83.8667 137.946 84.7071C138.011 85.5557 138.369 86.1683 139.022 86.545C139.409 86.7685 139.814 86.8907 140.237 86.9114C140.653 86.9362 141.073 86.8265 141.496 86.5823C141.933 86.3298 142.119 86.0565 142.055 85.7626C141.997 85.4729 141.721 85.1686 141.227 84.8499L142.42 84.1606C143.238 84.6905 143.636 85.2266 143.614 85.7689C143.586 86.3153 143.195 86.8058 142.442 87.2405C141.703 87.6668 140.929 87.8862 140.119 87.8986C139.309 87.9193 138.559 87.731 137.871 87.3336C137.319 87.0149 136.932 86.5926 136.71 86.0669C136.48 85.5453 136.387 84.9948 136.43 84.4152C136.48 83.8398 136.613 83.2913 136.828 82.7698L133.225 84.8499L132.225 84.2724L137.495 81.2299L138.398 81.7514ZM135.77 88.8945C136.143 89.1098 136.383 89.3643 136.49 89.6583C136.598 89.9522 136.548 90.2668 136.34 90.6021C136.125 90.9415 135.738 91.2727 135.178 91.5956C134.619 91.9184 134.049 92.1399 133.468 92.2599C132.88 92.3841 132.332 92.4152 131.823 92.3531C131.307 92.2951 130.862 92.1585 130.489 91.9433C130.073 91.7032 129.826 91.432 129.747 91.1299C129.661 90.8318 129.765 90.5193 130.059 90.1923C129.428 90.3827 128.815 90.4551 128.22 90.4096C127.632 90.3682 127.098 90.2088 126.617 89.9315C125.879 89.5051 125.564 89.0208 125.671 88.4785C125.786 87.9403 126.266 87.427 127.112 86.9386C127.958 86.4501 128.847 86.1728 129.779 86.1065C130.711 86.0486 131.547 86.2328 132.285 86.6592C132.766 86.9365 133.042 87.2449 133.113 87.5843C133.192 87.9279 133.067 88.2819 132.737 88.6461C133.303 88.4764 133.848 88.4143 134.372 88.4599C134.888 88.5095 135.354 88.6544 135.77 88.8945ZM134.361 89.4844C133.974 89.2609 133.547 89.1594 133.081 89.1801C132.615 89.2091 132.163 89.3499 131.726 89.6024C131.289 89.8549 131.045 90.1157 130.995 90.3847C130.952 90.6579 131.124 90.9063 131.511 91.1299C131.898 91.3534 132.332 91.4507 132.812 91.4217C133.285 91.3969 133.737 91.2603 134.167 91.0119C134.598 90.7635 134.834 90.5027 134.877 90.2295C134.92 89.9563 134.748 89.7079 134.361 89.4844ZM131.156 87.3856C130.719 87.1331 130.228 87.0193 129.683 87.0441C129.145 87.0731 128.625 87.2325 128.123 87.5223C127.621 87.812 127.345 88.1121 127.295 88.4226C127.252 88.7372 127.449 89.0208 127.887 89.2733C128.331 89.5299 128.819 89.6334 129.349 89.5837C129.88 89.5423 130.385 89.383 130.866 89.1056C131.339 88.8324 131.615 88.5406 131.694 88.2301C131.773 87.9196 131.593 87.6382 131.156 87.3856Z" fill="white"/>
</g>
<g filter="url(#filter3_d_1_272)">
<path d="M50.179 134.924L43.8552 137.118L42.8514 136.539L45.6978 133.662L40.7148 135.305L39.711 134.726L43.511 131.075L44.4073 131.592L41.1665 134.473L46.3933 132.739L47.2967 133.26L44.2925 136.278L49.2828 134.407L50.179 134.924ZM50.6816 139.793L48.545 138.559L47.0608 138.969L46.1861 138.464L53.0333 136.663L53.9726 137.206L50.8465 141.155L49.9718 140.65L50.6816 139.793ZM51.0831 139.296L52.6103 137.446L49.4053 138.327L51.0831 139.296ZM56.3145 141.356L55.9847 144.121L54.9881 143.546L55.3323 141.037L52.9877 142.391L52.1703 141.919L57.2323 138.997L58.0497 139.468L55.7338 140.806L60.0572 140.628L61.0467 141.199L56.3145 141.356ZM64.3847 147.415C64.1361 147.558 63.8446 147.657 63.51 147.713C63.1802 147.765 62.8288 147.758 62.456 147.692C62.0832 147.626 61.7199 147.49 61.3662 147.286C61.022 147.088 60.7735 146.875 60.6205 146.649C60.4723 146.42 60.4269 146.195 60.4843 145.974C60.5416 145.753 60.7018 145.553 60.9647 145.374L61.8394 145.879C61.6434 146.02 61.5478 146.182 61.5526 146.367C61.5621 146.555 61.7055 146.729 61.9828 146.889C62.2313 147.032 62.4895 147.104 62.7571 147.104C63.0296 147.107 63.271 147.048 63.4813 146.926C63.6629 146.821 63.7609 146.707 63.7753 146.582C63.7944 146.456 63.7633 146.33 63.682 146.206C63.6008 146.082 63.4741 145.92 63.302 145.721C63.0869 145.481 62.9292 145.274 62.8288 145.101C62.7332 144.929 62.7117 144.749 62.7643 144.558C62.8169 144.368 62.9985 144.183 63.3092 144.004C63.5817 143.846 63.8876 143.747 64.227 143.706C64.5663 143.664 64.9153 143.683 65.2738 143.763C65.637 143.841 65.9812 143.973 66.3062 144.161C66.8225 144.459 67.1069 144.767 67.1594 145.084C67.2168 145.404 67.0662 145.692 66.7077 145.949L65.8258 145.44C65.9836 145.31 66.0553 145.164 66.0409 145.001C66.0362 144.838 65.9071 144.684 65.6538 144.538C65.4243 144.405 65.1806 144.333 64.9224 144.322C64.6691 144.309 64.4325 144.365 64.2126 144.492C64.0405 144.591 63.9449 144.702 63.9258 144.823C63.9115 144.942 63.9426 145.062 64.019 145.183C64.1051 145.305 64.2317 145.463 64.399 145.659C64.6189 145.902 64.7766 146.112 64.8722 146.289C64.9774 146.465 65.0013 146.65 64.9439 146.843C64.8914 147.039 64.7049 147.23 64.3847 147.415ZM70.4155 146.608L67.4113 148.342C66.962 148.602 66.7254 148.851 66.7015 149.092C66.6823 149.334 66.852 149.559 67.2105 149.766C67.5642 149.971 67.949 150.066 68.3649 150.052C68.7855 150.041 69.2205 149.906 69.6698 149.646L72.674 147.912L73.4913 148.384L70.4872 150.118C69.7941 150.518 69.089 150.718 68.372 150.718C67.6598 150.716 67.0098 150.545 66.4218 150.205C65.8387 149.868 65.5471 149.496 65.5471 149.087C65.5519 148.676 65.9008 148.271 66.5939 147.87L69.5981 146.136L70.4155 146.608ZM74.1933 154.634L73.3759 154.162L74.6521 150.586L70.9166 152.742L70.0993 152.27L75.154 149.352L75.9714 149.824L74.6808 153.409L78.4307 151.244L79.248 151.716L74.1933 154.634ZM80.0151 156.729L77.8785 155.495L76.3943 155.905L75.5196 155.4L82.3668 153.599L83.3061 154.141L80.18 158.09L79.3053 157.585L80.0151 156.729ZM80.4166 156.232L81.9438 154.381L78.7389 155.263L80.4166 156.232ZM84.1639 160.391L84.9239 158.495L84.3431 158.159L82.3212 159.327L81.5039 158.855L86.5658 155.932L88.3511 156.963C88.9295 157.297 89.2258 157.631 89.2402 157.965C89.2593 158.301 89.037 158.604 88.5734 158.871C88.1766 159.1 87.7393 159.223 87.2613 159.24C86.7881 159.259 86.3053 159.168 85.813 158.967L85.0816 160.92L84.1639 160.391ZM84.9239 157.824L85.8273 158.346C86.4869 158.726 87.1083 158.749 87.6915 158.412C87.9687 158.252 88.1025 158.081 88.093 157.899C88.093 157.716 87.9233 157.527 87.5839 157.331L86.6805 156.81L84.9239 157.824ZM92.3853 159.292L87.3233 162.215L86.506 161.743L91.5679 158.82L92.3853 159.292Z" fill="white"/>
</g>
<g filter="url(#filter4_d_1_272)">
<path d="M29.2734 139.415C28.5962 139.806 28.18 140.175 28.0246 140.522C27.8693 140.869 28.0664 141.202 28.6161 141.519C29.1658 141.836 29.7414 141.95 30.3429 141.86C30.9483 141.773 31.5896 141.534 32.2668 141.143C32.936 140.757 33.3463 140.389 33.4976 140.039C33.653 139.692 33.4558 139.36 32.9061 139.042C32.3564 138.725 31.7808 138.611 31.1794 138.701C30.5819 138.788 29.9465 139.026 29.2734 139.415ZM31.7291 140.832C31.3825 141.033 31.0658 141.186 30.779 141.291C30.5002 141.397 30.2214 141.45 29.9426 141.45C29.6637 141.45 29.3929 141.374 29.13 141.222C28.8711 141.073 28.7416 140.918 28.7416 140.757C28.7416 140.596 28.8312 140.433 29.0105 140.27C29.1977 140.107 29.4646 139.925 29.8111 139.725C30.1537 139.527 30.4644 139.376 30.7432 139.27C31.026 139.166 31.3048 139.116 31.5797 139.118C31.8585 139.118 32.1274 139.193 32.3863 139.342C32.6492 139.494 32.7806 139.65 32.7806 139.811C32.7846 139.97 32.695 140.13 32.5118 140.291C32.3325 140.454 32.0716 140.635 31.7291 140.832ZM36.2775 142.355C36.4966 142.191 36.6041 142.03 36.6001 141.872C36.6041 141.713 36.4846 141.564 36.2417 141.423C35.9031 141.228 35.5147 141.155 35.0765 141.206C34.6424 141.259 34.1405 141.45 33.5709 141.779L33.3558 141.91C33.6545 141.806 33.9811 141.776 34.3357 141.82C34.6941 141.861 35.0188 141.966 35.3096 142.134C35.7278 142.375 35.929 142.636 35.913 142.917C35.9011 143.2 35.6701 143.471 35.2199 143.731C34.957 143.883 34.6663 143.991 34.3476 144.055C34.0329 144.117 33.7043 144.123 33.3617 144.073C33.0272 144.022 32.7025 143.906 32.3878 143.724C31.7864 143.377 31.5613 143.028 31.7127 142.679C31.868 142.332 32.2703 141.971 32.9196 141.596C33.6685 141.163 34.3496 140.908 34.963 140.83C35.5844 140.752 36.168 140.87 36.7137 141.185C37.116 141.418 37.3112 141.661 37.2992 141.917C37.2912 142.174 37.1239 142.42 36.7973 142.655L36.2775 142.355ZM32.8599 142.265C32.5691 142.433 32.4078 142.623 32.3759 142.834C32.352 143.046 32.5093 143.249 32.8479 143.445C33.1267 143.606 33.4315 143.687 33.7621 143.69C34.0967 143.69 34.4133 143.603 34.7121 143.431C35.0347 143.245 35.196 143.055 35.196 142.862C35.2 142.666 35.0546 142.483 34.7599 142.313C34.5926 142.217 34.3994 142.144 34.1803 142.096C33.9612 142.048 33.7342 142.036 33.4992 142.061C33.2681 142.084 33.055 142.152 32.8599 142.265ZM42.014 142.734L33.7268 145.629L33.201 145.325L41.4822 142.427L42.014 142.734ZM37.079 145.901C38.2102 146.03 39.2021 146.083 40.0545 146.06C40.9109 146.035 41.5323 145.911 41.9186 145.687C42.1576 145.549 42.2871 145.403 42.307 145.249C42.3349 145.095 42.2134 144.94 41.9425 144.784C41.6637 144.623 41.363 144.553 41.0403 144.573C40.7217 144.592 40.399 144.686 40.0724 144.856L39.5347 144.546C40.0326 144.29 40.5384 144.166 41.0523 144.173C41.5701 144.178 42.0362 144.3 42.4504 144.539C42.8448 144.766 43.0519 145.008 43.0718 145.263C43.0917 145.518 42.9085 145.758 42.5221 145.981C42.2035 146.165 41.7753 146.292 41.2375 146.364C40.7077 146.435 40.1461 146.462 39.5526 146.446C38.967 146.43 38.4134 146.384 37.8916 146.308L40.0306 147.543L39.5825 147.802L36.6846 146.129L37.079 145.901ZM42.2735 146.92C41.5963 147.311 41.18 147.68 41.0247 148.028C40.8694 148.375 41.0665 148.707 41.6162 149.025C42.1659 149.342 42.7415 149.456 43.343 149.366C43.9484 149.279 44.5897 149.04 45.2669 148.649C45.9361 148.262 46.3463 147.894 46.4977 147.545C46.6531 147.197 46.4559 146.865 45.9062 146.548C45.3565 146.23 44.7809 146.117 44.1795 146.206C43.582 146.294 42.9466 146.532 42.2735 146.92ZM44.7291 148.338C44.3826 148.538 44.0659 148.691 43.7791 148.797C43.5003 148.903 43.2215 148.956 42.9426 148.956C42.6638 148.956 42.393 148.88 42.1301 148.728C41.8711 148.578 41.7417 148.423 41.7417 148.262C41.7417 148.101 41.8313 147.939 42.0106 147.776C42.1978 147.613 42.4647 147.431 42.8112 147.231C43.1538 147.033 43.4645 146.881 43.7433 146.775C44.0261 146.672 44.3049 146.621 44.5798 146.624C44.8586 146.624 45.1275 146.698 45.3864 146.848C45.6493 147 45.7807 147.156 45.7807 147.317C45.7847 147.476 45.6951 147.636 45.5119 147.797C45.3326 147.96 45.0717 148.14 44.7291 148.338ZM44.1392 149.978C45.2704 150.106 46.2622 150.159 47.1147 150.136C47.9711 150.111 48.5925 149.987 48.9788 149.764C49.2178 149.626 49.3473 149.48 49.3672 149.326C49.3951 149.171 49.2736 149.016 49.0027 148.86C48.7239 148.699 48.4232 148.629 48.1005 148.649C47.7819 148.668 47.4592 148.762 47.1326 148.932L46.5949 148.622C47.0928 148.367 47.5986 148.242 48.1125 148.249C48.6303 148.254 49.0963 148.376 49.5106 148.615C49.9049 148.843 50.1121 149.084 50.132 149.339C50.1519 149.595 49.9687 149.834 49.5823 150.057C49.2636 150.241 48.8354 150.369 48.2977 150.44C47.7679 150.511 47.2063 150.539 46.6128 150.523C46.0272 150.506 45.4736 150.46 44.9518 150.385L47.0908 151.62L46.6427 151.878L43.7448 150.205L44.1392 149.978ZM48.0132 151.579L48.4673 151.317L53.4504 150.938L54.0359 151.276L51.2337 152.894L51.8551 153.253L51.383 153.525L50.7616 153.166L49.7937 153.725L49.244 153.408L50.212 152.849L48.0132 151.579ZM52.8588 151.362L49.0588 151.638L50.7198 152.597L52.8588 151.362Z" fill="white" fill-opacity="0.7" shape-rendering="crispEdges"/>
</g>
<path d="M158.37 145.273C158.623 145.127 159.033 145.127 159.286 145.273L164.121 148.065C164.374 148.211 164.374 148.447 164.121 148.593L161.842 149.909C161.589 150.055 161.179 150.055 160.926 149.909L156.091 147.118C155.838 146.972 155.838 146.735 156.091 146.589L158.37 145.273Z" fill="white"/>
<path d="M137.793 139.296C138.046 139.15 138.456 139.15 138.709 139.296L143.544 142.088C143.797 142.234 143.797 142.47 143.544 142.617L141.265 143.932C141.012 144.078 140.602 144.078 140.349 143.932L135.513 141.141C135.26 140.995 135.26 140.758 135.513 140.612L137.793 139.296Z" fill="white"/>
<path d="M142.905 136.344C143.158 136.198 143.568 136.198 143.821 136.344L148.657 139.136C148.91 139.282 148.91 139.519 148.657 139.665L146.378 140.981C146.125 141.127 145.714 141.127 145.461 140.981L140.626 138.189C140.373 138.043 140.373 137.806 140.626 137.66L142.905 136.344Z" fill="white"/>
<path d="M149.296 141.51C149.549 141.364 149.959 141.364 150.212 141.51L155.176 144.376C155.429 144.522 155.429 144.758 155.176 144.905L150.34 147.696C150.087 147.842 149.677 147.842 149.424 147.696L144.461 144.831C144.208 144.685 144.208 144.448 144.461 144.302L149.296 141.51Z" fill="white"/>
<path d="M153.26 148.226C153.513 148.08 153.923 148.08 154.176 148.226L159.011 151.018C159.264 151.164 159.264 151.4 159.011 151.546L156.732 152.862C156.479 153.008 156.069 153.008 155.816 152.862L150.98 150.071C150.727 149.925 150.727 149.688 150.98 149.542L153.26 148.226Z" fill="white"/>
<path d="M151.99 138.847C152.52 139.153 152.52 139.648 151.99 139.954C151.814 140.056 151.814 140.221 151.99 140.323L153.194 141.018C153.447 141.164 153.857 141.164 154.11 141.018L155.889 139.991C156.143 139.844 156.488 139.762 156.847 139.762C157.055 139.762 157.158 139.617 157.012 139.532L147.656 134.13C147.403 133.984 146.992 133.984 146.739 134.13L145.738 134.708C145.485 134.854 145.485 135.091 145.738 135.237L151.99 138.847Z" fill="white"/>
<path d="M157.677 141.327C157.505 141.327 157.341 141.366 157.219 141.436L156.027 142.125C155.774 142.271 155.774 142.507 156.027 142.653L157.231 143.348C157.407 143.45 157.693 143.45 157.87 143.348C158.399 143.043 159.258 143.043 159.787 143.348L166.039 146.958C166.292 147.104 166.702 147.104 166.955 146.958L167.956 146.38C168.209 146.234 168.209 145.997 167.956 145.851L160.31 141.436C160.188 141.366 160.024 141.327 159.852 141.327L157.677 141.327Z" fill="white"/>
<path d="M147.646 150.359C147.117 150.054 147.117 149.558 147.646 149.253C147.823 149.151 147.823 148.986 147.646 148.884L146.443 148.189C146.19 148.043 145.78 148.043 145.527 148.189L143.748 149.216C143.494 149.362 143.149 149.445 142.789 149.445C142.582 149.445 142.478 149.59 142.625 149.674L151.981 155.076C152.234 155.222 152.644 155.222 152.897 155.076L153.898 154.498C154.151 154.352 154.151 154.115 153.898 153.969L147.646 150.359Z" fill="white"/>
<path d="M141.958 147.879C142.13 147.879 142.295 147.839 142.416 147.769L143.608 147.081C143.861 146.935 143.861 146.698 143.608 146.552L142.404 145.857C142.228 145.755 141.942 145.755 141.765 145.857C141.236 146.163 140.378 146.163 139.848 145.857L133.596 142.248C133.343 142.102 132.933 142.102 132.68 142.248L131.679 142.826C131.426 142.972 131.426 143.208 131.679 143.355L139.325 147.769C139.447 147.839 139.612 147.879 139.783 147.879L141.958 147.879Z" fill="white"/>
<rect x="-1.57639e-08" y="0.264474" width="24.3316" height="18.5132" rx="0.793421" transform="matrix(0.866025 0.5 -0.866025 0.5 147.427 133.705)" stroke="white" stroke-width="0.528947"/>
<g style="mix-blend-mode:overlay">
<path d="M135.994 153.779C134.797 153.62 132.333 152.943 132.062 151.513M134.369 156.345C132.511 156.07 128.558 154.906 127.61 152.45M133.151 158.746C130.676 158.355 125.306 156.709 123.626 153.258M131.418 161.09C128.403 160.679 121.81 158.737 119.558 154.257" stroke="white" stroke-width="1.37985" stroke-linecap="round" stroke-linejoin="round"/>
</g>
<path fill-rule="evenodd" clip-rule="evenodd" d="M286.942 153.186L337.095 124.23C336.109 121.951 334.83 119.708 333.26 117.52C329.738 112.61 324.842 108.102 318.81 104.163C314.119 101.099 308.742 98.3796 302.789 96.0834C289.184 90.8349 273.189 88.0335 256.826 88.0335C240.463 88.0335 224.468 90.8349 210.863 96.0834C197.258 101.332 186.654 108.792 180.392 117.52C174.516 125.71 172.711 134.672 175.149 143.402L209.403 163.178L227.576 152.686C221.791 149.346 217.851 145.091 216.255 140.458C214.659 135.825 215.478 131.023 218.609 126.659C221.74 122.295 227.042 118.565 233.845 115.941C240.647 113.317 248.645 111.916 256.826 111.916C265.008 111.916 273.005 113.317 279.808 115.941C282.072 116.814 284.169 117.81 286.076 118.911C289.541 120.911 292.375 123.259 294.431 125.848C294.643 126.116 294.847 126.386 295.043 126.659C297 129.387 298.054 132.285 298.179 135.207C298.188 135.404 298.192 135.601 298.192 135.799C298.192 137.355 297.928 138.916 297.397 140.458C296.898 141.906 296.171 143.316 295.229 144.674C295.168 144.762 295.106 144.85 295.043 144.938C292.974 147.822 289.936 150.458 286.076 152.686L286.942 153.186ZM238.544 146.353C228.447 140.524 228.447 131.073 238.544 125.244C248.64 119.415 265.01 119.415 275.106 125.244C285.203 131.073 285.203 140.524 275.106 146.353C270.147 149.217 263.674 150.674 257.174 150.724C257.058 150.725 256.941 150.725 256.825 150.725C256.709 150.725 256.592 150.725 256.476 150.724C249.976 150.674 243.503 149.217 238.544 146.353Z" fill="url(#paint5_linear_1_272)"/>
<defs>
<filter id="filter0_b_1_272" x="0" y="-2.9585" width="400.318" height="237.041" filterUnits="userSpaceOnUse" color-interpolation-filters="sRGB">
<feFlood flood-opacity="0" result="BackgroundImageFix"/>
<feGaussianBlur in="BackgroundImageFix" stdDeviation="3.5"/>
<feComposite in2="SourceAlpha" operator="in" result="effect1_backgroundBlur_1_272"/>
<feBlend mode="normal" in="SourceGraphic" in2="effect1_backgroundBlur_1_272" result="shape"/>
</filter>
<filter id="filter1_b_1_272" x="0" y="83.3799" width="250.776" height="150.703" filterUnits="userSpaceOnUse" color-interpolation-filters="sRGB">
<feFlood flood-opacity="0" result="BackgroundImageFix"/>
<feGaussianBlur in="BackgroundImageFix" stdDeviation="3.5"/>
<feComposite in2="SourceAlpha" operator="in" result="effect1_backgroundBlur_1_272"/>
<feBlend mode="normal" in="SourceGraphic" in2="effect1_backgroundBlur_1_272" result="shape"/>
</filter>
<filter id="filter2_d_1_272" x="123.744" y="19.531" width="128.717" height="74.7618" filterUnits="userSpaceOnUse" color-interpolation-filters="sRGB">
<feFlood flood-opacity="0" result="BackgroundImageFix"/>
<feColorMatrix in="SourceAlpha" type="matrix" values="0 0 0 0 0 0 0 0 0 0 0 0 0 0 0 0 0 0 127 0" result="hardAlpha"/>
<feOffset dy="0.528947"/>
<feGaussianBlur stdDeviation="0.264474"/>
<feComposite in2="hardAlpha" operator="out"/>
<feColorMatrix type="matrix" values="0 0 0 0 0 0 0 0 0 0 0 0 0 0 0 0 0 0 0.2 0"/>
<feBlend mode="normal" in2="BackgroundImageFix" result="effect1_dropShadow_1_272"/>
<feBlend mode="normal" in="SourceGraphic" in2="effect1_dropShadow_1_272" result="shape"/>
</filter>
<filter id="filter3_d_1_272" x="37.3989" y="131.037" width="56.0509" height="33.2063" filterUnits="userSpaceOnUse" color-interpolation-filters="sRGB">
<feFlood flood-opacity="0" result="BackgroundImageFix"/>
<feColorMatrix in="SourceAlpha" type="matrix" values="0 0 0 0 0 0 0 0 0 0 0 0 0 0 0 0 0 0 127 0" result="hardAlpha"/>
<feOffset dy="1"/>
<feGaussianBlur stdDeviation="0.5"/>
<feComposite in2="hardAlpha" operator="out"/>
<feColorMatrix type="matrix" values="0 0 0 0 0 0 0 0 0 0 0 0 0 0 0 0 0 0 0.15 0"/>
<feBlend mode="normal" in2="BackgroundImageFix" result="effect1_dropShadow_1_272"/>
<feBlend mode="normal" in="SourceGraphic" in2="effect1_dropShadow_1_272" result="shape"/>
</filter>
<filter id="filter4_d_1_272" x="25.1187" y="137.397" width="31.9248" height="19.2771" filterUnits="userSpaceOnUse" color-interpolation-filters="sRGB">
<feFlood flood-opacity="0" result="BackgroundImageFix"/>
<feColorMatrix in="SourceAlpha" type="matrix" values="0 0 0 0 0 0 0 0 0 0 0 0 0 0 0 0 0 0 127 0" result="hardAlpha"/>
<feOffset dy="1"/>
<feGaussianBlur stdDeviation="0.5"/>
<feComposite in2="hardAlpha" operator="out"/>
<feColorMatrix type="matrix" values="0 0 0 0 0 0 0 0 0 0 0 0 0 0 0 0 0 0 0.15 0"/>
<feBlend mode="normal" in2="BackgroundImageFix" result="effect1_dropShadow_1_272"/>
<feBlend mode="normal" in="SourceGraphic" in2="effect1_dropShadow_1_272" result="shape"/>
</filter>
<linearGradient id="paint0_linear_1_272" x1="0" y1="0" x2="178" y2="284.248" gradientUnits="userSpaceOnUse">
<stop stop-color="white" stop-opacity="0.4"/>
<stop offset="1" stop-color="white" stop-opacity="0.1"/>
</linearGradient>
<linearGradient id="paint1_linear_1_272" x1="-1.21225e-06" y1="9.5" x2="167.5" y2="284" gradientUnits="userSpaceOnUse">
<stop stop-color="white"/>
<stop offset="1" stop-color="white" stop-opacity="0.1"/>
</linearGradient>
<linearGradient id="paint2_linear_1_272" x1="68.4985" y1="-89.5" x2="235.067" y2="251.832" gradientUnits="userSpaceOnUse">
<stop stop-color="#5AE5EA"/>
<stop offset="0.29487" stop-color="#5AE5EA" stop-opacity="0"/>
<stop offset="1" stop-color="#5AE5EA"/>
</linearGradient>
<linearGradient id="paint3_linear_1_272" x1="9.89486" y1="0" x2="9.89486" y2="19.7897" gradientUnits="userSpaceOnUse">
<stop stop-color="white"/>
<stop offset="0.479167" stop-opacity="0.5"/>
<stop offset="0.9375" stop-color="white"/>
</linearGradient>
<linearGradient id="paint4_linear_1_272" x1="9.89486" y1="0" x2="9.89486" y2="19.7897" gradientUnits="userSpaceOnUse">
<stop stop-color="white"/>
<stop offset="0.479167" stop-opacity="0.5"/>
<stop offset="0.9375" stop-color="white"/>
</linearGradient>
<linearGradient id="paint5_linear_1_272" x1="278.597" y1="50.9335" x2="276.709" y2="158.043" gradientUnits="userSpaceOnUse">
<stop stop-color="white"/>
<stop offset="1" stop-color="white" stop-opacity="0"/>
</linearGradient>
</defs>
</svg>
