<svg width="191" height="159" viewBox="0 0 191 159" fill="none" xmlns="http://www.w3.org/2000/svg">
<g filter="url(#filter0_b_310_778)">
<rect y="0.882568" width="191" height="158" rx="20" fill="url(#paint0_linear_310_778)"/>
</g>
<rect x="79" y="20.8826" width="34" height="34" rx="10" fill="#00030C"/>
<path d="M29.0274 86.7946C29.0274 87.3706 28.8834 87.9039 28.5954 88.3946C28.3074 88.8746 27.8808 89.2639 27.3154 89.5626C26.7501 89.8506 26.0621 89.9946 25.2514 89.9946C24.4514 89.9946 23.7368 89.8612 23.1074 89.5946C22.4781 89.3172 21.9714 88.9226 21.5874 88.4106C21.2141 87.8986 21.0008 87.3012 20.9474 86.6186H23.3474C23.4008 87.0772 23.5821 87.4612 23.8914 87.7706C24.2114 88.0692 24.6328 88.2186 25.1554 88.2186C25.6248 88.2186 25.9821 88.0959 26.2274 87.8506C26.4834 87.5946 26.6114 87.2692 26.6114 86.8746C26.6114 86.5226 26.5101 86.2346 26.3074 86.0106C26.1048 85.7759 25.8488 85.5892 25.5394 85.4506C25.2301 85.3119 24.8034 85.1519 24.2594 84.9706C23.5554 84.7359 22.9794 84.5066 22.5314 84.2826C22.0834 84.0479 21.6994 83.7119 21.3794 83.2746C21.0701 82.8372 20.9154 82.2666 20.9154 81.5626C20.9154 80.5919 21.2621 79.8292 21.9554 79.2746C22.6594 78.7092 23.5874 78.4266 24.7394 78.4266C25.9341 78.4266 26.8834 78.7146 27.5874 79.2906C28.3021 79.8666 28.7074 80.6346 28.8034 81.5946H26.3714C26.3074 81.1892 26.1368 80.8586 25.8594 80.6026C25.5821 80.3359 25.2034 80.2026 24.7234 80.2026C24.3074 80.2026 23.9714 80.3146 23.7154 80.5386C23.4594 80.7519 23.3314 81.0666 23.3314 81.4826C23.3314 81.8132 23.4274 82.0906 23.6194 82.3146C23.8221 82.5279 24.0728 82.7039 24.3714 82.8426C24.6808 82.9812 25.0968 83.1359 25.6194 83.3066C26.3448 83.5626 26.9314 83.8026 27.3794 84.0266C27.8381 84.2506 28.2274 84.5866 28.5474 85.0346C28.8674 85.4826 29.0274 86.0692 29.0274 86.7946ZM34.8333 80.9066C35.9746 80.9066 36.924 81.2159 37.6813 81.8346C38.4493 82.4532 38.9293 83.2959 39.1213 84.3626H36.7373C36.6413 83.8932 36.4226 83.5252 36.0813 83.2586C35.74 82.9812 35.308 82.8426 34.7853 82.8426C34.188 82.8426 33.6866 83.0666 33.2813 83.5146C32.8866 83.9519 32.6893 84.5972 32.6893 85.4506C32.6893 86.3039 32.8866 86.9546 33.2813 87.4026C33.6866 87.8399 34.188 88.0586 34.7853 88.0586C35.308 88.0586 35.74 87.9252 36.0813 87.6586C36.4226 87.3812 36.6413 87.0079 36.7373 86.5386H39.1213C38.9293 87.6052 38.4493 88.4479 37.6813 89.0666C36.924 89.6852 35.9746 89.9946 34.8333 89.9946C33.9693 89.9946 33.2013 89.8132 32.5293 89.4506C31.8573 89.0772 31.3346 88.5492 30.9613 87.8666C30.588 87.1839 30.4013 86.3786 30.4013 85.4506C30.4013 84.5226 30.588 83.7172 30.9613 83.0346C31.3346 82.3412 31.8573 81.8132 32.5293 81.4506C33.2013 81.0879 33.9693 80.9066 34.8333 80.9066ZM44.3563 80.9066C45.103 80.9066 45.743 81.0826 46.2763 81.4346C46.8096 81.7866 47.1883 82.2612 47.4123 82.8586V81.0186H49.6523V89.8826H47.4123V88.0266C47.1883 88.6239 46.8096 89.1039 46.2763 89.4666C45.743 89.8186 45.103 89.9946 44.3563 89.9946C43.6096 89.9946 42.9376 89.8132 42.3403 89.4506C41.743 89.0879 41.2736 88.5652 40.9323 87.8826C40.6016 87.1892 40.4363 86.3786 40.4363 85.4506C40.4363 84.5226 40.6016 83.7172 40.9323 83.0346C41.2736 82.3412 41.743 81.8132 42.3403 81.4506C42.9376 81.0879 43.6096 80.9066 44.3563 80.9066ZM45.0603 82.8746C44.3563 82.8746 43.791 83.1039 43.3643 83.5626C42.9376 84.0212 42.7243 84.6506 42.7243 85.4506C42.7243 86.2506 42.9376 86.8799 43.3643 87.3386C43.791 87.7866 44.3563 88.0106 45.0603 88.0106C45.743 88.0106 46.303 87.7812 46.7403 87.3226C47.1883 86.8532 47.4123 86.2292 47.4123 85.4506C47.4123 84.6612 47.1883 84.0372 46.7403 83.5786C46.303 83.1092 45.743 82.8746 45.0603 82.8746ZM57.1368 80.8906C58.1608 80.8906 58.9768 81.2266 59.5848 81.8986C60.1928 82.5706 60.4968 83.5146 60.4968 84.7306V89.8826H58.2568V84.9866C58.2568 84.2826 58.0755 83.7386 57.7128 83.3546C57.3501 82.9599 56.8541 82.7626 56.2248 82.7626C55.5848 82.7626 55.0728 82.9706 54.6888 83.3866C54.3048 83.8026 54.1128 84.3999 54.1128 85.1786V89.8826H51.8568V81.0186H54.1128V82.7946C54.3475 82.1972 54.7315 81.7332 55.2648 81.4026C55.8088 81.0612 56.4328 80.8906 57.1368 80.8906ZM71.3902 78.4746C72.7982 78.4746 73.9662 78.8372 74.8942 79.5626C75.8222 80.2879 76.4355 81.2746 76.7342 82.5226H74.3662C74.1209 81.9146 73.7369 81.4346 73.2142 81.0826C72.7022 80.7306 72.0835 80.5546 71.3582 80.5546C70.7609 80.5546 70.2222 80.7039 69.7422 81.0026C69.2622 81.3012 68.8889 81.7279 68.6222 82.2826C68.3555 82.8372 68.2222 83.4879 68.2222 84.2346C68.2222 84.9706 68.3555 85.6159 68.6222 86.1706C68.8889 86.7252 69.2622 87.1519 69.7422 87.4506C70.2222 87.7492 70.7609 87.8986 71.3582 87.8986C72.0835 87.8986 72.7022 87.7226 73.2142 87.3706C73.7369 87.0186 74.1209 86.5386 74.3662 85.9306H76.7342C76.4355 87.1786 75.8222 88.1652 74.8942 88.8906C73.9662 89.6159 72.7982 89.9786 71.3902 89.9786C70.3129 89.9786 69.3582 89.7386 68.5262 89.2586C67.7049 88.7679 67.0649 88.0852 66.6062 87.2106C66.1582 86.3359 65.9342 85.3439 65.9342 84.2346C65.9342 83.1146 66.1582 82.1172 66.6062 81.2426C67.0649 80.3679 67.7049 79.6906 68.5262 79.2106C69.3475 78.7199 70.3022 78.4746 71.3902 78.4746ZM80.8428 82.7146C81.1735 82.1492 81.6108 81.7066 82.1548 81.3866C82.6988 81.0559 83.3068 80.8906 83.9788 80.8906V83.3066H83.3228C81.6695 83.3066 80.8428 84.0746 80.8428 85.6106V89.8826H78.5868V81.0186H80.8428V82.7146ZM93.7234 85.1146C93.7234 85.3386 93.6968 85.5946 93.6434 85.8826H87.1474C87.1794 86.6719 87.3928 87.2532 87.7874 87.6266C88.1821 87.9999 88.6728 88.1866 89.2594 88.1866C89.7821 88.1866 90.2141 88.0586 90.5554 87.8026C90.9074 87.5466 91.1314 87.1999 91.2274 86.7626H93.6114C93.4941 87.3812 93.2434 87.9359 92.8594 88.4266C92.4754 88.9172 91.9794 89.3012 91.3714 89.5786C90.7741 89.8559 90.1074 89.9946 89.3714 89.9946C88.5074 89.9946 87.7394 89.8132 87.0674 89.4506C86.3954 89.0772 85.8728 88.5492 85.4994 87.8666C85.1261 87.1839 84.9394 86.3786 84.9394 85.4506C84.9394 84.5226 85.1261 83.7172 85.4994 83.0346C85.8728 82.3412 86.3954 81.8132 87.0674 81.4506C87.7394 81.0879 88.5074 80.9066 89.3714 80.9066C90.2461 80.9066 91.0088 81.0879 91.6594 81.4506C92.3208 81.8132 92.8274 82.3146 93.1794 82.9546C93.5421 83.5839 93.7234 84.3039 93.7234 85.1146ZM91.4514 84.8906C91.4834 84.1652 91.2914 83.6159 90.8754 83.2426C90.4701 82.8692 89.9688 82.6826 89.3714 82.6826C88.7634 82.6826 88.2514 82.8692 87.8354 83.2426C87.4194 83.6159 87.1901 84.1652 87.1474 84.8906H91.4514ZM98.9569 80.9066C99.7036 80.9066 100.338 81.0826 100.861 81.4346C101.394 81.7866 101.778 82.2612 102.013 82.8586V78.0426H104.253V89.8826H102.013V88.0266C101.778 88.6239 101.394 89.1039 100.861 89.4666C100.338 89.8186 99.7036 89.9946 98.9569 89.9946C98.2103 89.9946 97.5383 89.8132 96.9409 89.4506C96.3436 89.0879 95.8743 88.5652 95.5329 87.8826C95.2023 87.1892 95.0369 86.3786 95.0369 85.4506C95.0369 84.5226 95.2023 83.7172 95.5329 83.0346C95.8743 82.3412 96.3436 81.8132 96.9409 81.4506C97.5383 81.0879 98.2103 80.9066 98.9569 80.9066ZM99.6609 82.8746C98.9569 82.8746 98.3916 83.1039 97.9649 83.5626C97.5383 84.0212 97.3249 84.6506 97.3249 85.4506C97.3249 86.2506 97.5383 86.8799 97.9649 87.3386C98.3916 87.7866 98.9569 88.0106 99.6609 88.0106C100.344 88.0106 100.904 87.7812 101.341 87.3226C101.789 86.8532 102.013 86.2292 102.013 85.4506C102.013 84.6612 101.789 84.0372 101.341 83.5786C100.904 83.1092 100.344 82.8746 99.6609 82.8746ZM106.201 78.4746C106.201 78.1119 106.329 77.8186 106.585 77.5946C106.841 77.3599 107.177 77.2426 107.593 77.2426C108.009 77.2426 108.345 77.3599 108.601 77.5946C108.857 77.8186 108.985 78.1119 108.985 78.4746C108.985 78.8266 108.857 79.1199 108.601 79.3546C108.345 79.5786 108.009 79.6906 107.593 79.6906C107.177 79.6906 106.841 79.5786 106.585 79.3546C106.329 79.1199 106.201 78.8266 106.201 78.4746ZM108.713 81.0186V89.8826H106.457V81.0186H108.713ZM115.65 87.9466V89.8826H114.466C113.474 89.8826 112.712 89.6426 112.178 89.1626C111.656 88.6826 111.394 87.8826 111.394 86.7626V82.9226H110.162V81.0186H111.394V78.8266H113.65V81.0186H115.634V82.9226H113.65V86.7946C113.65 87.2212 113.736 87.5199 113.906 87.6906C114.077 87.8612 114.365 87.9466 114.77 87.9466H115.65ZM126.182 78.4746C127.59 78.4746 128.758 78.8372 129.686 79.5626C130.614 80.2879 131.227 81.2746 131.526 82.5226H129.158C128.913 81.9146 128.529 81.4346 128.006 81.0826C127.494 80.7306 126.875 80.5546 126.15 80.5546C125.553 80.5546 125.014 80.7039 124.534 81.0026C124.054 81.3012 123.681 81.7279 123.414 82.2826C123.147 82.8372 123.014 83.4879 123.014 84.2346C123.014 84.9706 123.147 85.6159 123.414 86.1706C123.681 86.7252 124.054 87.1519 124.534 87.4506C125.014 87.7492 125.553 87.8986 126.15 87.8986C126.875 87.8986 127.494 87.7226 128.006 87.3706C128.529 87.0186 128.913 86.5386 129.158 85.9306H131.526C131.227 87.1786 130.614 88.1652 129.686 88.8906C128.758 89.6159 127.59 89.9786 126.182 89.9786C125.105 89.9786 124.15 89.7386 123.318 89.2586C122.497 88.7679 121.857 88.0852 121.398 87.2106C120.95 86.3359 120.726 85.3439 120.726 84.2346C120.726 83.1146 120.95 82.1172 121.398 81.2426C121.857 80.3679 122.497 79.6906 123.318 79.2106C124.139 78.7199 125.094 78.4746 126.182 78.4746ZM136.851 80.9066C137.597 80.9066 138.237 81.0826 138.771 81.4346C139.304 81.7866 139.683 82.2612 139.907 82.8586V81.0186H142.147V89.8826H139.907V88.0266C139.683 88.6239 139.304 89.1039 138.771 89.4666C138.237 89.8186 137.597 89.9946 136.851 89.9946C136.104 89.9946 135.432 89.8132 134.835 89.4506C134.237 89.0879 133.768 88.5652 133.427 87.8826C133.096 87.1892 132.931 86.3786 132.931 85.4506C132.931 84.5226 133.096 83.7172 133.427 83.0346C133.768 82.3412 134.237 81.8132 134.835 81.4506C135.432 81.0879 136.104 80.9066 136.851 80.9066ZM137.555 82.8746C136.851 82.8746 136.285 83.1039 135.859 83.5626C135.432 84.0212 135.219 84.6506 135.219 85.4506C135.219 86.2506 135.432 86.8799 135.859 87.3386C136.285 87.7866 136.851 88.0106 137.555 88.0106C138.237 88.0106 138.797 87.7812 139.235 87.3226C139.683 86.8532 139.907 86.2292 139.907 85.4506C139.907 84.6612 139.683 84.0372 139.235 83.5786C138.797 83.1092 138.237 82.8746 137.555 82.8746ZM146.607 82.7146C146.938 82.1492 147.375 81.7066 147.919 81.3866C148.463 81.0559 149.071 80.8906 149.743 80.8906V83.3066H149.087C147.434 83.3066 146.607 84.0746 146.607 85.6106V89.8826H144.351V81.0186H146.607V82.7146ZM154.624 80.9066C155.37 80.9066 156.005 81.0826 156.528 81.4346C157.061 81.7866 157.445 82.2612 157.68 82.8586V78.0426H159.92V89.8826H157.68V88.0266C157.445 88.6239 157.061 89.1039 156.528 89.4666C156.005 89.8186 155.37 89.9946 154.624 89.9946C153.877 89.9946 153.205 89.8132 152.608 89.4506C152.01 89.0879 151.541 88.5652 151.2 87.8826C150.869 87.1892 150.704 86.3786 150.704 85.4506C150.704 84.5226 150.869 83.7172 151.2 83.0346C151.541 82.3412 152.01 81.8132 152.608 81.4506C153.205 81.0879 153.877 80.9066 154.624 80.9066ZM155.328 82.8746C154.624 82.8746 154.058 83.1039 153.632 83.5626C153.205 84.0212 152.992 84.6506 152.992 85.4506C152.992 86.2506 153.205 86.8799 153.632 87.3386C154.058 87.7866 154.624 88.0106 155.328 88.0106C156.01 88.0106 156.57 87.7812 157.008 87.3226C157.456 86.8532 157.68 86.2292 157.68 85.4506C157.68 84.6612 157.456 84.0372 157.008 83.5786C156.57 83.1092 156.01 82.8746 155.328 82.8746ZM165.18 80.9066C166.258 80.9066 167.122 81.1786 167.772 81.7226C168.423 82.2666 168.828 82.9919 168.988 83.8986H166.876C166.791 83.4719 166.599 83.1306 166.3 82.8746C166.002 82.6186 165.612 82.4906 165.132 82.4906C164.748 82.4906 164.45 82.5812 164.236 82.7626C164.023 82.9439 163.916 83.1892 163.916 83.4986C163.916 83.7439 164.002 83.9412 164.172 84.0906C164.343 84.2399 164.556 84.3572 164.812 84.4426C165.068 84.5279 165.436 84.6292 165.916 84.7466C166.588 84.8959 167.132 85.0559 167.548 85.2266C167.975 85.3866 168.338 85.6479 168.636 86.0106C168.946 86.3626 169.1 86.8426 169.1 87.4506C169.1 88.2079 168.802 88.8212 168.204 89.2906C167.618 89.7599 166.823 89.9946 165.82 89.9946C164.668 89.9946 163.746 89.7386 163.052 89.2266C162.359 88.7039 161.938 87.9626 161.788 87.0026H163.948C164.002 87.4399 164.194 87.7866 164.524 88.0426C164.855 88.2879 165.287 88.4106 165.82 88.4106C166.204 88.4106 166.498 88.3199 166.7 88.1386C166.903 87.9466 167.004 87.7012 167.004 87.4026C167.004 87.1466 166.914 86.9386 166.732 86.7786C166.562 86.6186 166.343 86.4959 166.076 86.4106C165.82 86.3252 165.452 86.2239 164.972 86.1066C164.311 85.9572 163.772 85.8079 163.356 85.6586C162.951 85.4986 162.599 85.2479 162.3 84.9066C162.012 84.5652 161.868 84.0959 161.868 83.4986C161.868 82.7306 162.162 82.1066 162.748 81.6266C163.335 81.1466 164.146 80.9066 165.18 80.9066Z" fill="white"/>
<path d="M26.2571 114.967C25.7051 114.967 25.2091 114.871 24.7691 114.679C24.3371 114.479 23.9971 114.207 23.7491 113.863C23.5011 113.511 23.3731 113.107 23.3651 112.651H24.5291C24.5691 113.043 24.7291 113.375 25.0091 113.647C25.2971 113.911 25.7131 114.043 26.2571 114.043C26.7771 114.043 27.1851 113.915 27.4811 113.659C27.7851 113.395 27.9371 113.059 27.9371 112.651C27.9371 112.331 27.8491 112.071 27.6731 111.871C27.4971 111.671 27.2771 111.519 27.0131 111.415C26.7491 111.311 26.3931 111.199 25.9451 111.079C25.3931 110.935 24.9491 110.791 24.6131 110.647C24.2851 110.503 24.0011 110.279 23.7611 109.975C23.5291 109.663 23.4131 109.247 23.4131 108.727C23.4131 108.271 23.5291 107.867 23.7611 107.515C23.9931 107.163 24.3171 106.891 24.7331 106.699C25.1571 106.507 25.6411 106.411 26.1851 106.411C26.9691 106.411 27.6091 106.607 28.1051 106.999C28.6091 107.391 28.8931 107.911 28.9571 108.559H27.7571C27.7171 108.239 27.5491 107.959 27.2531 107.719C26.9571 107.471 26.5651 107.347 26.0771 107.347C25.6211 107.347 25.2491 107.467 24.9611 107.707C24.6731 107.939 24.5291 108.267 24.5291 108.691C24.5291 108.995 24.6131 109.243 24.7811 109.435C24.9571 109.627 25.1691 109.775 25.4171 109.879C25.6731 109.975 26.0291 110.087 26.4851 110.215C27.0371 110.367 27.4811 110.519 27.8171 110.671C28.1531 110.815 28.4411 111.043 28.6811 111.355C28.9211 111.659 29.0411 112.075 29.0411 112.603C29.0411 113.011 28.9331 113.395 28.7171 113.755C28.5011 114.115 28.1811 114.407 27.7571 114.631C27.3331 114.855 26.8331 114.967 26.2571 114.967ZM30.3601 111.583C30.3601 110.903 30.4961 110.311 30.7681 109.807C31.0401 109.295 31.4161 108.899 31.8961 108.619C32.3841 108.339 32.9401 108.199 33.5641 108.199C34.3721 108.199 35.0361 108.395 35.5561 108.787C36.0841 109.179 36.4321 109.723 36.6001 110.419H35.4241C35.3121 110.019 35.0921 109.703 34.7641 109.471C34.4441 109.239 34.0441 109.123 33.5641 109.123C32.9401 109.123 32.4361 109.339 32.0521 109.771C31.6681 110.195 31.4761 110.799 31.4761 111.583C31.4761 112.375 31.6681 112.987 32.0521 113.419C32.4361 113.851 32.9401 114.067 33.5641 114.067C34.0441 114.067 34.4441 113.955 34.7641 113.731C35.0841 113.507 35.3041 113.187 35.4241 112.771H36.6001C36.4241 113.443 36.0721 113.983 35.5441 114.391C35.0161 114.791 34.3561 114.991 33.5641 114.991C32.9401 114.991 32.3841 114.851 31.8961 114.571C31.4161 114.291 31.0401 113.895 30.7681 113.383C30.4961 112.871 30.3601 112.271 30.3601 111.583ZM37.7691 111.571C37.7691 110.899 37.9051 110.311 38.1771 109.807C38.4491 109.295 38.8211 108.899 39.2931 108.619C39.7731 108.339 40.3051 108.199 40.8891 108.199C41.4651 108.199 41.9651 108.323 42.3891 108.571C42.8131 108.819 43.1291 109.131 43.3371 109.507V108.307H44.4411V114.883H43.3371V113.659C43.1211 114.043 42.7971 114.363 42.3651 114.619C41.9411 114.867 41.4451 114.991 40.8771 114.991C40.2931 114.991 39.7651 114.847 39.2931 114.559C38.8211 114.271 38.4491 113.867 38.1771 113.347C37.9051 112.827 37.7691 112.235 37.7691 111.571ZM43.3371 111.583C43.3371 111.087 43.2371 110.655 43.0371 110.287C42.8371 109.919 42.5651 109.639 42.2211 109.447C41.8851 109.247 41.5131 109.147 41.1051 109.147C40.6971 109.147 40.3251 109.243 39.9891 109.435C39.6531 109.627 39.3851 109.907 39.1851 110.275C38.9851 110.643 38.8851 111.075 38.8851 111.571C38.8851 112.075 38.9851 112.515 39.1851 112.891C39.3851 113.259 39.6531 113.543 39.9891 113.743C40.3251 113.935 40.6971 114.031 41.1051 114.031C41.5131 114.031 41.8851 113.935 42.2211 113.743C42.5651 113.543 42.8371 113.259 43.0371 112.891C43.2371 112.515 43.3371 112.079 43.3371 111.583ZM49.6105 108.187C50.4105 108.187 51.0585 108.431 51.5545 108.919C52.0505 109.399 52.2985 110.095 52.2985 111.007V114.883H51.2185V111.163C51.2185 110.507 51.0545 110.007 50.7265 109.663C50.3985 109.311 49.9505 109.135 49.3825 109.135C48.8065 109.135 48.3465 109.315 48.0025 109.675C47.6665 110.035 47.4985 110.559 47.4985 111.247V114.883H46.4065V108.307H47.4985V109.243C47.7145 108.907 48.0065 108.647 48.3745 108.463C48.7505 108.279 49.1625 108.187 49.6105 108.187ZM63.1855 108.307L59.2255 117.979H58.0975L59.3935 114.811L56.7415 108.307H57.9535L60.0175 113.635L62.0575 108.307H63.1855ZM67.2712 114.991C66.6552 114.991 66.0952 114.851 65.5912 114.571C65.0952 114.291 64.7032 113.895 64.4152 113.383C64.1352 112.863 63.9952 112.263 63.9952 111.583C63.9952 110.911 64.1392 110.319 64.4272 109.807C64.7232 109.287 65.1232 108.891 65.6272 108.619C66.1312 108.339 66.6952 108.199 67.3192 108.199C67.9432 108.199 68.5072 108.339 69.0112 108.619C69.5152 108.891 69.9112 109.283 70.1992 109.795C70.4952 110.307 70.6432 110.903 70.6432 111.583C70.6432 112.263 70.4912 112.863 70.1872 113.383C69.8912 113.895 69.4872 114.291 68.9752 114.571C68.4632 114.851 67.8952 114.991 67.2712 114.991ZM67.2712 114.031C67.6632 114.031 68.0312 113.939 68.3752 113.755C68.7192 113.571 68.9952 113.295 69.2032 112.927C69.4192 112.559 69.5272 112.111 69.5272 111.583C69.5272 111.055 69.4232 110.607 69.2152 110.239C69.0072 109.871 68.7352 109.599 68.3992 109.423C68.0632 109.239 67.6992 109.147 67.3072 109.147C66.9072 109.147 66.5392 109.239 66.2032 109.423C65.8752 109.599 65.6112 109.871 65.4112 110.239C65.2112 110.607 65.1112 111.055 65.1112 111.583C65.1112 112.119 65.2072 112.571 65.3992 112.939C65.5992 113.307 65.8632 113.583 66.1912 113.767C66.5192 113.943 66.8792 114.031 67.2712 114.031ZM78.031 108.307V114.883H76.939V113.911C76.731 114.247 76.439 114.511 76.063 114.703C75.695 114.887 75.287 114.979 74.839 114.979C74.327 114.979 73.867 114.875 73.459 114.667C73.051 114.451 72.727 114.131 72.487 113.707C72.255 113.283 72.139 112.767 72.139 112.159V108.307H73.219V112.015C73.219 112.663 73.383 113.163 73.711 113.515C74.039 113.859 74.487 114.031 75.055 114.031C75.639 114.031 76.099 113.851 76.435 113.491C76.771 113.131 76.939 112.607 76.939 111.919V108.307H78.031ZM81.0868 109.375C81.2788 108.999 81.5508 108.707 81.9028 108.499C82.2628 108.291 82.6988 108.187 83.2108 108.187V109.315H82.9228C81.6988 109.315 81.0868 109.979 81.0868 111.307V114.883H79.9948V108.307H81.0868V109.375ZM87.5026 111.583C87.5026 110.903 87.6386 110.311 87.9106 109.807C88.1826 109.295 88.5586 108.899 89.0386 108.619C89.5266 108.339 90.0826 108.199 90.7066 108.199C91.5146 108.199 92.1786 108.395 92.6986 108.787C93.2266 109.179 93.5746 109.723 93.7426 110.419H92.5666C92.4546 110.019 92.2346 109.703 91.9066 109.471C91.5866 109.239 91.1866 109.123 90.7066 109.123C90.0826 109.123 89.5786 109.339 89.1946 109.771C88.8106 110.195 88.6186 110.799 88.6186 111.583C88.6186 112.375 88.8106 112.987 89.1946 113.419C89.5786 113.851 90.0826 114.067 90.7066 114.067C91.1866 114.067 91.5866 113.955 91.9066 113.731C92.2266 113.507 92.4466 113.187 92.5666 112.771H93.7426C93.5666 113.443 93.2146 113.983 92.6866 114.391C92.1586 114.791 91.4986 114.991 90.7066 114.991C90.0826 114.991 89.5266 114.851 89.0386 114.571C88.5586 114.291 88.1826 113.895 87.9106 113.383C87.6386 112.871 87.5026 112.271 87.5026 111.583ZM96.4116 109.375C96.6036 108.999 96.8756 108.707 97.2276 108.499C97.5876 108.291 98.0236 108.187 98.5356 108.187V109.315H98.2476C97.0236 109.315 96.4116 109.979 96.4116 111.307V114.883H95.3196V108.307H96.4116V109.375ZM105.916 111.343C105.916 111.551 105.904 111.771 105.88 112.003H100.624C100.664 112.651 100.884 113.159 101.284 113.527C101.692 113.887 102.184 114.067 102.76 114.067C103.232 114.067 103.624 113.959 103.936 113.743C104.256 113.519 104.48 113.223 104.608 112.855H105.784C105.608 113.487 105.256 114.003 104.728 114.403C104.2 114.795 103.544 114.991 102.76 114.991C102.136 114.991 101.576 114.851 101.08 114.571C100.592 114.291 100.208 113.895 99.9282 113.383C99.6482 112.863 99.5082 112.263 99.5082 111.583C99.5082 110.903 99.6442 110.307 99.9162 109.795C100.188 109.283 100.568 108.891 101.056 108.619C101.552 108.339 102.12 108.199 102.76 108.199C103.384 108.199 103.936 108.335 104.416 108.607C104.896 108.879 105.264 109.255 105.52 109.735C105.784 110.207 105.916 110.743 105.916 111.343ZM104.788 111.115C104.788 110.699 104.696 110.343 104.512 110.047C104.328 109.743 104.076 109.515 103.756 109.363C103.444 109.203 103.096 109.123 102.712 109.123C102.16 109.123 101.688 109.299 101.296 109.651C100.912 110.003 100.692 110.491 100.636 111.115H104.788ZM107.07 111.571C107.07 110.899 107.206 110.311 107.478 109.807C107.75 109.295 108.122 108.899 108.594 108.619C109.074 108.339 109.61 108.199 110.202 108.199C110.714 108.199 111.19 108.319 111.63 108.559C112.07 108.791 112.406 109.099 112.638 109.483V106.003H113.742V114.883H112.638V113.647C112.422 114.039 112.102 114.363 111.678 114.619C111.254 114.867 110.758 114.991 110.19 114.991C109.606 114.991 109.074 114.847 108.594 114.559C108.122 114.271 107.75 113.867 107.478 113.347C107.206 112.827 107.07 112.235 107.07 111.571ZM112.638 111.583C112.638 111.087 112.538 110.655 112.338 110.287C112.138 109.919 111.866 109.639 111.522 109.447C111.186 109.247 110.814 109.147 110.406 109.147C109.998 109.147 109.626 109.243 109.29 109.435C108.954 109.627 108.686 109.907 108.486 110.275C108.286 110.643 108.186 111.075 108.186 111.571C108.186 112.075 108.286 112.515 108.486 112.891C108.686 113.259 108.954 113.543 109.29 113.743C109.626 113.935 109.998 114.031 110.406 114.031C110.814 114.031 111.186 113.935 111.522 113.743C111.866 113.543 112.138 113.259 112.338 112.891C112.538 112.515 112.638 112.079 112.638 111.583ZM116.271 107.239C116.063 107.239 115.887 107.167 115.743 107.023C115.599 106.879 115.527 106.703 115.527 106.495C115.527 106.287 115.599 106.111 115.743 105.967C115.887 105.823 116.063 105.751 116.271 105.751C116.471 105.751 116.639 105.823 116.775 105.967C116.919 106.111 116.991 106.287 116.991 106.495C116.991 106.703 116.919 106.879 116.775 107.023C116.639 107.167 116.471 107.239 116.271 107.239ZM116.799 108.307V114.883H115.707V108.307H116.799ZM120.112 109.207V113.083C120.112 113.403 120.18 113.631 120.316 113.767C120.452 113.895 120.688 113.959 121.024 113.959H121.828V114.883H120.844C120.236 114.883 119.78 114.743 119.476 114.463C119.172 114.183 119.02 113.723 119.02 113.083V109.207H118.168V108.307H119.02V106.651H120.112V108.307H121.828V109.207H120.112ZM126.182 111.583C126.182 110.903 126.318 110.311 126.59 109.807C126.862 109.295 127.238 108.899 127.718 108.619C128.206 108.339 128.762 108.199 129.386 108.199C130.194 108.199 130.858 108.395 131.378 108.787C131.906 109.179 132.254 109.723 132.422 110.419H131.246C131.134 110.019 130.914 109.703 130.586 109.471C130.266 109.239 129.866 109.123 129.386 109.123C128.762 109.123 128.258 109.339 127.874 109.771C127.49 110.195 127.298 110.799 127.298 111.583C127.298 112.375 127.49 112.987 127.874 113.419C128.258 113.851 128.762 114.067 129.386 114.067C129.866 114.067 130.266 113.955 130.586 113.731C130.906 113.507 131.126 113.187 131.246 112.771H132.422C132.246 113.443 131.894 113.983 131.366 114.391C130.838 114.791 130.178 114.991 129.386 114.991C128.762 114.991 128.206 114.851 127.718 114.571C127.238 114.291 126.862 113.895 126.59 113.383C126.318 112.871 126.182 112.271 126.182 111.583ZM133.591 111.571C133.591 110.899 133.727 110.311 133.999 109.807C134.271 109.295 134.643 108.899 135.115 108.619C135.595 108.339 136.127 108.199 136.711 108.199C137.287 108.199 137.787 108.323 138.211 108.571C138.635 108.819 138.951 109.131 139.159 109.507V108.307H140.263V114.883H139.159V113.659C138.943 114.043 138.619 114.363 138.187 114.619C137.763 114.867 137.267 114.991 136.699 114.991C136.115 114.991 135.587 114.847 135.115 114.559C134.643 114.271 134.271 113.867 133.999 113.347C133.727 112.827 133.591 112.235 133.591 111.571ZM139.159 111.583C139.159 111.087 139.059 110.655 138.859 110.287C138.659 109.919 138.387 109.639 138.043 109.447C137.707 109.247 137.335 109.147 136.927 109.147C136.519 109.147 136.147 109.243 135.811 109.435C135.475 109.627 135.207 109.907 135.007 110.275C134.807 110.643 134.707 111.075 134.707 111.571C134.707 112.075 134.807 112.515 135.007 112.891C135.207 113.259 135.475 113.543 135.811 113.743C136.147 113.935 136.519 114.031 136.927 114.031C137.335 114.031 137.707 113.935 138.043 113.743C138.387 113.543 138.659 113.259 138.859 112.891C139.059 112.515 139.159 112.079 139.159 111.583ZM143.321 109.375C143.513 108.999 143.785 108.707 144.137 108.499C144.497 108.291 144.933 108.187 145.445 108.187V109.315H145.157C143.933 109.315 143.321 109.979 143.321 111.307V114.883H142.229V108.307H143.321V109.375ZM146.417 111.571C146.417 110.899 146.553 110.311 146.825 109.807C147.097 109.295 147.469 108.899 147.941 108.619C148.421 108.339 148.957 108.199 149.549 108.199C150.061 108.199 150.537 108.319 150.977 108.559C151.417 108.791 151.753 109.099 151.985 109.483V106.003H153.089V114.883H151.985V113.647C151.769 114.039 151.449 114.363 151.025 114.619C150.601 114.867 150.105 114.991 149.537 114.991C148.953 114.991 148.421 114.847 147.941 114.559C147.469 114.271 147.097 113.867 146.825 113.347C146.553 112.827 146.417 112.235 146.417 111.571ZM151.985 111.583C151.985 111.087 151.885 110.655 151.685 110.287C151.485 109.919 151.213 109.639 150.869 109.447C150.533 109.247 150.161 109.147 149.753 109.147C149.345 109.147 148.973 109.243 148.637 109.435C148.301 109.627 148.033 109.907 147.833 110.275C147.633 110.643 147.533 111.075 147.533 111.571C147.533 112.075 147.633 112.515 147.833 112.891C148.033 113.259 148.301 113.543 148.637 113.743C148.973 113.935 149.345 114.031 149.753 114.031C150.161 114.031 150.533 113.935 150.869 113.743C151.213 113.543 151.485 113.259 151.685 112.891C151.885 112.515 151.985 112.079 151.985 111.583ZM158.938 107.239C158.73 107.239 158.554 107.167 158.41 107.023C158.266 106.879 158.194 106.703 158.194 106.495C158.194 106.287 158.266 106.111 158.41 105.967C158.554 105.823 158.73 105.751 158.938 105.751C159.138 105.751 159.306 105.823 159.442 105.967C159.586 106.111 159.658 106.287 159.658 106.495C159.658 106.703 159.586 106.879 159.442 107.023C159.306 107.167 159.138 107.239 158.938 107.239ZM159.466 108.307V114.883H158.374V108.307H159.466ZM164.651 108.187C165.451 108.187 166.099 108.431 166.595 108.919C167.091 109.399 167.339 110.095 167.339 111.007V114.883H166.259V111.163C166.259 110.507 166.095 110.007 165.767 109.663C165.439 109.311 164.991 109.135 164.423 109.135C163.847 109.135 163.387 109.315 163.043 109.675C162.707 110.035 162.539 110.559 162.539 111.247V114.883H161.447V108.307H162.539V109.243C162.755 108.907 163.047 108.647 163.415 108.463C163.791 108.279 164.203 108.187 164.651 108.187ZM64.4322 131.951V131.123L68.6442 125.291H69.9522V131.003H71.1522V131.951H69.9522V133.883H68.8722V131.951H64.4322ZM68.9202 126.431L65.6922 131.003H68.9202V126.431ZM83.7703 127.187C84.2823 127.187 84.7383 127.295 85.1383 127.511C85.5383 127.719 85.8543 128.035 86.0863 128.459C86.3183 128.883 86.4343 129.399 86.4343 130.007V133.883H85.3543V130.163C85.3543 129.507 85.1903 129.007 84.8623 128.663C84.5423 128.311 84.1063 128.135 83.5543 128.135C82.9863 128.135 82.5343 128.319 82.1983 128.687C81.8623 129.047 81.6943 129.571 81.6943 130.259V133.883H80.6143V130.163C80.6143 129.507 80.4503 129.007 80.1223 128.663C79.8023 128.311 79.3663 128.135 78.8143 128.135C78.2463 128.135 77.7943 128.319 77.4583 128.687C77.1223 129.047 76.9543 129.571 76.9543 130.259V133.883H75.8623V127.307H76.9543V128.255C77.1703 127.911 77.4583 127.647 77.8183 127.463C78.1863 127.279 78.5903 127.187 79.0303 127.187C79.5823 127.187 80.0703 127.311 80.4943 127.559C80.9183 127.807 81.2343 128.171 81.4423 128.651C81.6263 128.187 81.9303 127.827 82.3543 127.571C82.7783 127.315 83.2503 127.187 83.7703 127.187ZM88.9096 126.239C88.7016 126.239 88.5256 126.167 88.3816 126.023C88.2376 125.879 88.1656 125.703 88.1656 125.495C88.1656 125.287 88.2376 125.111 88.3816 124.967C88.5256 124.823 88.7016 124.751 88.9096 124.751C89.1096 124.751 89.2776 124.823 89.4136 124.967C89.5576 125.111 89.6296 125.287 89.6296 125.495C89.6296 125.703 89.5576 125.879 89.4136 126.023C89.2776 126.167 89.1096 126.239 88.9096 126.239ZM89.4376 127.307V133.883H88.3456V127.307H89.4376ZM94.6227 127.187C95.4227 127.187 96.0707 127.431 96.5667 127.919C97.0627 128.399 97.3107 129.095 97.3107 130.007V133.883H96.2307V130.163C96.2307 129.507 96.0667 129.007 95.7387 128.663C95.4107 128.311 94.9627 128.135 94.3947 128.135C93.8187 128.135 93.3587 128.315 93.0147 128.675C92.6787 129.035 92.5107 129.559 92.5107 130.247V133.883H91.4187V127.307H92.5107V128.243C92.7267 127.907 93.0187 127.647 93.3867 127.463C93.7627 127.279 94.1747 127.187 94.6227 127.187ZM105.046 127.307V133.883H103.954V132.911C103.746 133.247 103.454 133.511 103.078 133.703C102.71 133.887 102.302 133.979 101.854 133.979C101.342 133.979 100.882 133.875 100.474 133.667C100.066 133.451 99.7425 133.131 99.5025 132.707C99.2705 132.283 99.1545 131.767 99.1545 131.159V127.307H100.234V131.015C100.234 131.663 100.398 132.163 100.726 132.515C101.054 132.859 101.502 133.031 102.07 133.031C102.654 133.031 103.114 132.851 103.45 132.491C103.786 132.131 103.954 131.607 103.954 130.919V127.307H105.046ZM108.342 128.207V132.083C108.342 132.403 108.41 132.631 108.546 132.767C108.682 132.895 108.918 132.959 109.254 132.959H110.058V133.883H109.074C108.466 133.883 108.01 133.743 107.706 133.463C107.402 133.183 107.25 132.723 107.25 132.083V128.207H106.398V127.307H107.25V125.651H108.342V127.307H110.058V128.207H108.342ZM117.501 130.343C117.501 130.551 117.489 130.771 117.465 131.003H112.209C112.249 131.651 112.469 132.159 112.869 132.527C113.277 132.887 113.769 133.067 114.345 133.067C114.817 133.067 115.209 132.959 115.521 132.743C115.841 132.519 116.065 132.223 116.193 131.855H117.369C117.193 132.487 116.841 133.003 116.313 133.403C115.785 133.795 115.129 133.991 114.345 133.991C113.721 133.991 113.161 133.851 112.665 133.571C112.177 133.291 111.793 132.895 111.513 132.383C111.233 131.863 111.093 131.263 111.093 130.583C111.093 129.903 111.229 129.307 111.501 128.795C111.773 128.283 112.153 127.891 112.641 127.619C113.137 127.339 113.705 127.199 114.345 127.199C114.969 127.199 115.521 127.335 116.001 127.607C116.481 127.879 116.849 128.255 117.105 128.735C117.369 129.207 117.501 129.743 117.501 130.343ZM116.373 130.115C116.373 129.699 116.281 129.343 116.097 129.047C115.913 128.743 115.661 128.515 115.341 128.363C115.029 128.203 114.681 128.123 114.297 128.123C113.745 128.123 113.273 128.299 112.881 128.651C112.497 129.003 112.277 129.491 112.221 130.115H116.373ZM121.391 133.991C120.887 133.991 120.435 133.907 120.035 133.739C119.635 133.563 119.319 133.323 119.087 133.019C118.855 132.707 118.727 132.351 118.703 131.951H119.831C119.863 132.279 120.015 132.547 120.287 132.755C120.567 132.963 120.931 133.067 121.379 133.067C121.795 133.067 122.123 132.975 122.363 132.791C122.603 132.607 122.723 132.375 122.723 132.095C122.723 131.807 122.595 131.595 122.339 131.459C122.083 131.315 121.687 131.175 121.151 131.039C120.663 130.911 120.263 130.783 119.951 130.655C119.647 130.519 119.383 130.323 119.159 130.067C118.943 129.803 118.835 129.459 118.835 129.035C118.835 128.699 118.935 128.391 119.135 128.111C119.335 127.831 119.619 127.611 119.987 127.451C120.355 127.283 120.775 127.199 121.247 127.199C121.975 127.199 122.563 127.383 123.011 127.751C123.459 128.119 123.699 128.623 123.731 129.263H122.639C122.615 128.919 122.475 128.643 122.219 128.435C121.971 128.227 121.635 128.123 121.211 128.123C120.819 128.123 120.507 128.207 120.275 128.375C120.043 128.543 119.927 128.763 119.927 129.035C119.927 129.251 119.995 129.431 120.131 129.575C120.275 129.711 120.451 129.823 120.659 129.911C120.875 129.991 121.171 130.083 121.547 130.187C122.019 130.315 122.403 130.443 122.699 130.571C122.995 130.691 123.247 130.875 123.455 131.123C123.671 131.371 123.783 131.695 123.791 132.095C123.791 132.455 123.691 132.779 123.491 133.067C123.291 133.355 123.007 133.583 122.639 133.751C122.279 133.911 121.863 133.991 121.391 133.991ZM125.8 133.955C125.592 133.955 125.416 133.883 125.272 133.739C125.128 133.595 125.056 133.419 125.056 133.211C125.056 133.003 125.128 132.827 125.272 132.683C125.416 132.539 125.592 132.467 125.8 132.467C126 132.467 126.168 132.539 126.304 132.683C126.448 132.827 126.52 133.003 126.52 133.211C126.52 133.419 126.448 133.595 126.304 133.739C126.168 133.883 126 133.955 125.8 133.955Z" fill="white" fill-opacity="0.7"/>
<path fill-rule="evenodd" clip-rule="evenodd" d="M92.4277 28.8826C92.8477 28.8826 93.1887 29.217 93.1887 29.6298C93.1887 30.0416 92.8487 30.376 92.4277 30.376L90.7987 30.377C89.4467 30.379 88.3467 31.4586 88.3467 32.7854V34.6446C88.3467 35.0564 88.0047 35.3918 87.5847 35.3918C87.1647 35.3918 86.8237 35.0564 86.8237 34.6446V32.7854C86.8237 30.6359 88.6067 28.8855 90.7977 28.8835L92.4267 28.8826H92.4277ZM99.6006 28.8829H101.194C103.391 28.8829 105.177 30.6342 105.177 32.7886V34.6449C105.177 35.0567 104.837 35.3921 104.416 35.3921C103.996 35.3921 103.655 35.0567 103.655 34.6449V32.7886C103.655 31.4579 102.551 30.3753 101.194 30.3753H99.6006C99.1806 30.3753 98.8396 30.0419 98.8396 29.6301C98.8396 29.2172 99.1806 28.8829 99.6006 28.8829ZM98.7625 32.6252H93.2385C91.9745 32.638 90.9585 33.6509 90.9695 34.8914V36.1368C90.9725 36.2819 91.0915 36.4005 91.2395 36.4054H100.76C100.908 36.4015 101.028 36.2829 101.032 36.1368V34.8914C101.034 34.2922 100.797 33.7166 100.372 33.2881C99.9485 32.8635 99.3675 32.6252 98.7625 32.6252ZM85.762 37.9238H106.239C106.659 37.9238 107 38.2582 107 38.671C107 39.0829 106.659 39.4163 106.239 39.4163H105.177V42.9759C105.177 45.1312 103.39 46.8826 101.194 46.8826H99.601C99.18 46.8826 98.839 46.5482 98.839 46.1353C98.839 45.7235 99.18 45.3891 99.601 45.3891H101.194C102.551 45.3891 103.655 44.3075 103.655 42.9759V39.4163H101.032V40.4077C101.042 41.6481 100.027 42.6621 98.762 42.6738H93.238C91.974 42.6621 90.959 41.6481 90.969 40.4077V39.4163H88.346V42.9798C88.346 44.3065 89.447 45.3862 90.8 45.3881L92.428 45.3891C92.848 45.3891 93.189 45.7235 93.189 46.1353C93.188 46.5482 92.848 46.8826 92.427 46.8826L90.798 46.8816C88.607 46.8796 86.823 45.1293 86.823 42.9798V39.4163H85.762C85.342 39.4163 85 39.0829 85 38.671C85 38.2582 85.342 37.9238 85.762 37.9238Z" fill="#00F6FF"/>
<defs>
<filter id="filter0_b_310_778" x="-10" y="-9.11743" width="211" height="178" filterUnits="userSpaceOnUse" color-interpolation-filters="sRGB">
<feFlood flood-opacity="0" result="BackgroundImageFix"/>
<feGaussianBlur in="BackgroundImageFix" stdDeviation="5"/>
<feComposite in2="SourceAlpha" operator="in" result="effect1_backgroundBlur_310_778"/>
<feBlend mode="normal" in="SourceGraphic" in2="effect1_backgroundBlur_310_778" result="shape"/>
</filter>
<linearGradient id="paint0_linear_310_778" x1="-708" y1="-446.117" x2="184.238" y2="215.008" gradientUnits="userSpaceOnUse">
<stop offset="0.161458" stop-color="white"/>
<stop offset="0.578125" stop-color="#6D6D6D"/>
<stop offset="0.932292" stop-color="#11101D"/>
</linearGradient>
</defs>
</svg>
